<svg width="257" height="337" viewBox="0 0 257 337" fill="none" xmlns="http://www.w3.org/2000/svg">
<path d="M209.893 0C210.013 0 210.11 0.0566725 210.183 0.170006C210.224 0.242041 210.254 0.319511 210.273 0.400002C210.533 1.88 211.173 2.77667 212.193 3.09C212.275 3.11476 212.348 3.16171 212.404 3.2256C212.461 3.2895 212.498 3.36783 212.513 3.45184C212.527 3.53586 212.518 3.62226 212.486 3.7014C212.455 3.78054 212.402 3.8493 212.333 3.9L211.003 4.91C210.736 5.11157 210.54 5.39545 210.443 5.72C210.256 6.36667 210.056 6.68667 209.843 6.68C209.636 6.68 209.443 6.35667 209.263 5.71C209.171 5.38312 208.978 5.09566 208.713 4.89L207.393 3.87C207.325 3.81857 207.272 3.74907 207.241 3.66931C207.21 3.58955 207.202 3.5027 207.217 3.41853C207.233 3.33437 207.272 3.25622 207.329 3.19288C207.387 3.12954 207.461 3.08352 207.543 3.06001C208.57 2.76001 209.223 1.87 209.503 0.389999C209.526 0.312427 209.559 0.238361 209.603 0.170006C209.676 0.0566725 209.773 0 209.893 0Z" fill="#DDC9DC"/>
<path d="M5.60311 54.77C5.65816 54.7873 5.70622 54.8233 5.73894 54.8717C5.77167 54.9201 5.78698 54.9778 5.78223 55.0348C5.77747 55.0919 5.75295 55.1446 5.71292 55.1839C5.6729 55.2232 5.61989 55.2466 5.56311 55.25C3.86311 55.3833 3.08644 56.24 3.23311 57.82C3.23728 57.8671 3.23158 57.9146 3.21637 57.9593C3.20116 58.0041 3.17678 58.0452 3.14478 58.0801C3.11278 58.1149 3.07388 58.1426 3.03054 58.1616C2.9872 58.1805 2.9404 58.1902 2.89311 58.19H2.5931C2.53115 58.1902 2.47158 58.1674 2.42684 58.1264C2.38211 58.0854 2.35569 58.0293 2.35311 57.97C2.26644 56.31 1.59977 55.4767 0.353106 55.47C0.285325 55.4687 0.219289 55.4483 0.162597 55.4111C0.105904 55.374 0.0608596 55.3215 0.032649 55.2599C0.00443845 55.1982 -0.00579189 55.1299 0.0031347 55.0627C0.0120613 54.9955 0.039781 54.9321 0.083106 54.88C0.403106 54.52 0.736439 54.2867 1.08311 54.18C1.18941 54.1486 1.28758 54.0938 1.37057 54.0194C1.45356 53.9451 1.51931 53.8531 1.56311 53.75L2.57311 51.49C2.59969 51.4393 2.64223 51.3989 2.69415 51.3749C2.74607 51.3508 2.80446 51.3446 2.86028 51.3571C2.9161 51.3697 2.96623 51.4003 3.00289 51.4442C3.03956 51.4881 3.06073 51.5428 3.06311 51.6C3.00311 53.24 3.84977 54.2967 5.60311 54.77Z" fill="#F3AEC8"/>
<path d="M171.753 102.03C170.193 101.443 168.693 101.22 167.253 101.36C167.079 101.38 166.918 101.462 166.802 101.591C166.686 101.721 166.622 101.888 166.623 102.06V116.14C166.623 116.297 166.662 116.451 166.735 116.587C166.809 116.723 166.914 116.838 167.043 116.92C167.576 117.273 168.346 117.343 169.353 117.13C169.313 118.097 169.126 118.977 168.793 119.77C167.383 124.55 165.743 127.82 160.653 128.72C160.07 128.824 159.538 129.124 159.143 129.57C157.296 131.683 154.876 132.467 151.883 131.92C151.757 131.899 151.628 131.913 151.51 131.96C151.392 132.008 151.289 132.088 151.213 132.19L151.063 132.4C150.976 132.447 150.896 132.48 150.823 132.5C150.773 132.512 150.722 132.513 150.672 132.502C150.622 132.492 150.574 132.471 150.533 132.44C150.492 132.41 150.459 132.371 150.434 132.326C150.41 132.281 150.396 132.231 150.393 132.18C149.863 125.25 142.913 120.49 136.533 119.9C136.473 119.894 136.415 119.871 136.368 119.834C136.32 119.797 136.283 119.747 136.263 119.69C136.216 119.583 136.206 119.49 136.233 119.41L136.263 118.43L134.233 103.47C134.161 102.939 133.954 102.436 133.633 102.01L132.703 100.78C132.539 100.563 132.429 100.313 132.383 100.05C131.956 97.7634 132.82 96.1334 134.973 95.1601C135.513 94.9098 135.988 94.5442 136.363 94.0901C143.073 85.9501 151.013 82.8501 161.393 87.2601C161.619 87.3558 161.869 87.3773 162.108 87.3216C162.347 87.2659 162.563 87.1358 162.723 86.9501C165.473 83.7301 168.563 79.8301 173.123 80.2901C173.467 80.3232 173.805 80.418 174.123 80.5701C177.443 82.1301 176.933 86.5501 175.073 89.1201C174.593 89.7801 173.623 90.9434 172.163 92.6101C172.136 92.6463 172.122 92.6903 172.124 92.7343C172.126 92.7783 172.143 92.8194 172.173 92.8501L172.363 93.0401C172.37 93.047 172.378 93.0522 172.387 93.0555C172.396 93.0587 172.407 93.0599 172.417 93.059C172.427 93.0581 172.438 93.055 172.447 93.05C172.457 93.0451 172.466 93.0383 172.473 93.0301L177.193 87.9301C177.244 87.872 177.31 87.8285 177.382 87.8039C177.454 87.7793 177.53 87.7745 177.603 87.7901L177.623 87.8001C177.683 87.845 177.724 87.91 177.739 87.9821C177.754 88.0543 177.741 88.1285 177.703 88.1901C175.83 91.2434 173.316 93.5068 170.163 94.9801C170.033 95.0417 169.928 95.1473 169.87 95.2777C169.811 95.4081 169.801 95.5545 169.843 95.6901L171.753 102.03ZM146.023 95.0901C146.563 94.8234 147.033 94.4901 147.433 94.0901C147.565 93.9594 147.651 93.7888 147.677 93.6047C147.703 93.4206 147.668 93.233 147.577 93.0707C147.486 92.9084 147.345 92.7803 147.174 92.7062C147.004 92.632 146.814 92.6158 146.633 92.6601C142.86 93.5468 139.573 95.6634 136.773 99.0101C136.433 99.4119 136.19 99.8857 136.062 100.395C135.934 100.905 135.924 101.437 136.033 101.95L139.423 118C139.46 118.181 139.557 118.345 139.698 118.466C139.839 118.587 140.016 118.659 140.203 118.67L143.703 118.87C143.767 118.873 143.831 118.861 143.889 118.833C143.946 118.805 143.996 118.762 144.033 118.71L147.013 114.58C147.143 114.398 147.21 114.184 147.203 113.97C147.17 111.717 147.24 110.003 147.413 108.83C147.416 108.737 147.455 108.649 147.523 108.586C147.59 108.522 147.68 108.487 147.773 108.49C147.866 108.493 147.954 108.532 148.017 108.6C148.081 108.667 148.116 108.757 148.113 108.85C148.226 109.99 148.093 111.307 147.713 112.8C147.693 112.877 147.691 112.957 147.707 113.034C147.723 113.112 147.756 113.184 147.804 113.247C147.852 113.31 147.914 113.361 147.985 113.396C148.056 113.431 148.134 113.45 148.213 113.45H154.543C154.681 113.45 154.818 113.484 154.943 113.55L158.893 115.65C159.242 115.836 159.632 115.93 160.026 115.925C160.421 115.92 160.809 115.815 161.153 115.621C161.496 115.427 161.786 115.149 161.994 114.813C162.202 114.477 162.322 114.095 162.343 113.7L163.063 100.89C163.07 100.81 163.066 100.73 163.053 100.65C162.926 99.5968 162.186 98.4368 160.833 97.1701C157.393 93.9501 153.353 92.3901 148.713 92.4901C148.601 92.4927 148.494 92.5402 148.415 92.6225C148.337 92.7047 148.293 92.8151 148.293 92.9301C148.286 94.4834 147.576 95.3601 146.163 95.5601C146.105 95.5655 146.048 95.5508 146 95.5184C145.952 95.486 145.917 95.438 145.9 95.3826C145.884 95.3271 145.887 95.2677 145.909 95.2143C145.932 95.161 145.972 95.1171 146.023 95.0901ZM153.913 116.26L150.543 116.87C150.509 116.876 150.476 116.889 150.446 116.908C150.417 116.927 150.392 116.952 150.372 116.98C150.352 117.009 150.339 117.042 150.332 117.076C150.325 117.111 150.326 117.146 150.333 117.18L150.363 117.33C150.407 117.574 150.498 117.806 150.631 118.015C150.763 118.223 150.936 118.403 151.137 118.544C151.339 118.685 151.566 118.785 151.805 118.837C152.045 118.89 152.292 118.894 152.533 118.85L152.743 118.81C152.984 118.767 153.213 118.677 153.419 118.544C153.625 118.411 153.802 118.238 153.942 118.036C154.081 117.833 154.179 117.605 154.231 117.364C154.283 117.123 154.287 116.873 154.243 116.63L154.213 116.47C154.201 116.403 154.162 116.343 154.106 116.303C154.05 116.264 153.981 116.248 153.913 116.26Z" fill="#0F2335"/>
<path d="M43.4229 95.14C44.3508 95.14 45.1029 94.3879 45.1029 93.46C45.1029 92.5322 44.3508 91.78 43.4229 91.78C42.4951 91.78 41.7429 92.5322 41.7429 93.46C41.7429 94.3879 42.4951 95.14 43.4229 95.14Z" fill="#7CB8D3"/>
<path d="M146.023 95.0901C145.972 95.1171 145.932 95.161 145.909 95.2144C145.887 95.2677 145.884 95.3271 145.9 95.3826C145.917 95.438 145.952 95.486 146 95.5184C146.048 95.5508 146.105 95.5655 146.163 95.5601C147.576 95.3601 148.286 94.4834 148.293 92.9301C148.293 92.8151 148.337 92.7047 148.415 92.6225C148.494 92.5402 148.601 92.4927 148.713 92.4901C153.353 92.3901 157.393 93.9501 160.833 97.1701C162.186 98.4368 162.926 99.5968 163.053 100.65C163.066 100.73 163.07 100.81 163.063 100.89L162.343 113.7C162.322 114.095 162.202 114.477 161.994 114.813C161.786 115.149 161.496 115.427 161.153 115.621C160.809 115.815 160.421 115.92 160.026 115.925C159.632 115.93 159.242 115.836 158.893 115.65L154.943 113.55C154.818 113.485 154.681 113.45 154.543 113.45H148.213C148.134 113.45 148.056 113.431 147.985 113.396C147.914 113.361 147.852 113.31 147.804 113.247C147.756 113.185 147.723 113.112 147.707 113.034C147.691 112.957 147.693 112.877 147.713 112.8C148.093 111.307 148.226 109.99 148.113 108.85C148.116 108.757 148.081 108.667 148.017 108.6C147.954 108.532 147.866 108.493 147.773 108.49C147.68 108.487 147.59 108.522 147.523 108.586C147.455 108.649 147.416 108.737 147.413 108.83C147.24 110.003 147.17 111.717 147.203 113.97C147.21 114.184 147.143 114.398 147.013 114.58L144.033 118.71C143.996 118.762 143.946 118.805 143.889 118.833C143.831 118.861 143.767 118.873 143.703 118.87L140.203 118.67C140.016 118.659 139.839 118.587 139.698 118.466C139.557 118.345 139.46 118.181 139.423 118L136.033 101.95C135.924 101.437 135.934 100.905 136.062 100.395C136.19 99.8857 136.433 99.4119 136.773 99.0101C139.573 95.6635 142.86 93.5468 146.633 92.6601C146.814 92.6158 147.004 92.632 147.174 92.7062C147.345 92.7803 147.486 92.9084 147.577 93.0707C147.668 93.233 147.703 93.4206 147.677 93.6047C147.651 93.7888 147.565 93.9594 147.433 94.0901C147.033 94.4901 146.563 94.8235 146.023 95.0901ZM154.943 99.6601C155.423 99.7134 156.13 99.9935 157.063 100.5C157.111 100.527 157.165 100.541 157.22 100.538C157.275 100.536 157.328 100.518 157.373 100.486C157.418 100.455 157.453 100.411 157.474 100.361C157.496 100.31 157.502 100.254 157.493 100.2C157.313 99.2201 155.903 98.8101 155.043 98.7101C154.193 98.6201 152.733 98.7101 152.343 99.6201C152.323 99.6698 152.317 99.7241 152.326 99.7769C152.335 99.8298 152.358 99.8792 152.393 99.9196C152.428 99.96 152.474 99.9898 152.525 100.006C152.576 100.022 152.631 100.023 152.683 100.01C153.71 99.7235 154.463 99.6068 154.943 99.6601ZM143.103 100.587C143.094 100.527 143.029 100.476 142.909 100.436C142.789 100.396 142.617 100.368 142.403 100.354C142.189 100.339 141.938 100.339 141.663 100.353C141.388 100.367 141.095 100.394 140.801 100.434C140.507 100.474 140.218 100.525 139.949 100.585C139.68 100.644 139.438 100.711 139.236 100.782C139.033 100.852 138.875 100.925 138.77 100.995C138.665 101.066 138.615 101.133 138.623 101.193C138.631 101.253 138.697 101.304 138.817 101.344C138.937 101.384 139.109 101.412 139.323 101.427C139.536 101.441 139.788 101.441 140.063 101.427C140.338 101.413 140.63 101.386 140.925 101.346C141.219 101.306 141.508 101.255 141.777 101.195C142.046 101.136 142.288 101.069 142.49 100.998C142.692 100.928 142.851 100.855 142.956 100.785C143.061 100.714 143.111 100.647 143.103 100.587ZM154.343 107.53C153.376 107.723 152.683 108.52 152.263 109.92C152.244 109.978 152.243 110.04 152.261 110.098C152.28 110.156 152.316 110.207 152.364 110.243C152.413 110.28 152.472 110.3 152.532 110.301C152.593 110.303 152.653 110.285 152.703 110.25C153.353 109.83 153.553 108.9 154.573 108.69C155.593 108.49 156.133 109.27 156.903 109.4C156.961 109.409 157.02 109.401 157.074 109.375C157.127 109.35 157.171 109.309 157.2 109.258C157.229 109.207 157.242 109.149 157.237 109.09C157.233 109.031 157.21 108.976 157.173 108.93C156.246 107.803 155.303 107.337 154.343 107.53ZM141.353 108.99C141.766 108.997 142.156 109.42 142.523 110.26C142.565 110.352 142.639 110.424 142.732 110.463C142.825 110.502 142.928 110.504 143.023 110.47C143.17 110.423 143.276 110.33 143.343 110.19C143.43 110.003 143.423 109.77 143.323 109.49C143.043 108.717 142.393 108.32 141.373 108.3C140.346 108.28 139.68 108.653 139.373 109.42C139.266 109.693 139.253 109.927 139.333 110.12C139.393 110.26 139.496 110.357 139.643 110.41C139.736 110.445 139.839 110.444 139.932 110.407C140.024 110.37 140.099 110.3 140.143 110.21C140.543 109.39 140.946 108.983 141.353 108.99Z" fill="#E69241"/>
<path d="M231.553 98.8702C232.497 98.8702 233.263 98.1046 233.263 97.1602C233.263 96.2158 232.497 95.4502 231.553 95.4502C230.609 95.4502 229.843 96.2158 229.843 97.1602C229.843 98.1046 230.609 98.8702 231.553 98.8702Z" fill="#7CB8D3"/>
<path d="M154.943 99.66C154.463 99.6067 153.71 99.7234 152.683 100.01C152.631 100.023 152.576 100.022 152.525 100.006C152.474 99.9897 152.428 99.9599 152.393 99.9195C152.358 99.8791 152.335 99.8297 152.326 99.7769C152.317 99.724 152.323 99.6697 152.343 99.62C152.733 98.71 154.193 98.62 155.043 98.71C155.903 98.81 157.313 99.22 157.493 100.2C157.502 100.254 157.496 100.31 157.474 100.361C157.453 100.411 157.418 100.455 157.373 100.486C157.328 100.518 157.275 100.536 157.22 100.538C157.165 100.541 157.111 100.527 157.063 100.5C156.13 99.9934 155.423 99.7134 154.943 99.66Z" fill="#0F2335"/>
<path d="M140.925 101.346C142.162 101.179 143.137 100.839 143.103 100.587C143.069 100.336 142.038 100.267 140.801 100.434C139.564 100.601 138.589 100.941 138.623 101.193C138.657 101.445 139.688 101.513 140.925 101.346Z" fill="#0F2335"/>
<path d="M122.803 105.7C124.063 103.89 126.253 101.15 128.673 102.53C128.819 102.611 128.938 102.732 129.016 102.88C129.094 103.027 129.128 103.194 129.113 103.36C128.723 107.03 123.493 111.64 120.523 114.21C120.452 114.273 120.366 114.316 120.273 114.337C120.18 114.358 120.084 114.356 119.992 114.33C119.901 114.304 119.817 114.256 119.749 114.189C119.681 114.123 119.631 114.041 119.603 113.95C118.743 111.19 116.353 102.9 118.163 101.03C118.304 100.887 118.474 100.775 118.662 100.701C118.85 100.628 119.052 100.594 119.257 100.602C119.461 100.611 119.663 100.661 119.85 100.75C120.037 100.839 120.204 100.965 120.343 101.12C121.41 102.32 122.033 103.793 122.213 105.54C122.22 105.607 122.248 105.671 122.292 105.723C122.336 105.774 122.394 105.811 122.458 105.829C122.523 105.846 122.59 105.843 122.652 105.82C122.714 105.797 122.767 105.755 122.803 105.7Z" fill="#FCC004"/>
<path d="M171.753 102.03C174.833 103.61 176.36 105.973 176.333 109.12C176.3 113.527 173.973 116.197 169.353 117.13C168.346 117.343 167.576 117.273 167.043 116.92C166.915 116.838 166.809 116.723 166.735 116.587C166.662 116.451 166.623 116.297 166.623 116.14V102.06C166.622 101.887 166.686 101.721 166.802 101.591C166.919 101.462 167.079 101.38 167.253 101.36C168.693 101.22 170.193 101.443 171.753 102.03ZM171.043 107.19C170.176 107.763 169.726 108.077 169.693 108.13C169.661 108.172 169.643 108.223 169.639 108.276C169.636 108.329 169.649 108.382 169.676 108.428C169.702 108.474 169.742 108.511 169.789 108.534C169.837 108.558 169.89 108.567 169.943 108.56C170.13 108.533 170.62 108.257 171.413 107.73C172.206 107.203 172.646 106.86 172.733 106.7C172.759 106.655 172.772 106.603 172.77 106.551C172.767 106.498 172.749 106.448 172.718 106.406C172.688 106.363 172.645 106.331 172.596 106.312C172.548 106.293 172.494 106.289 172.443 106.3C172.383 106.313 171.916 106.61 171.043 107.19Z" fill="#E69241"/>
<path d="M171.413 107.73C170.62 108.257 170.13 108.534 169.943 108.56C169.89 108.567 169.837 108.558 169.789 108.534C169.742 108.511 169.702 108.474 169.676 108.428C169.649 108.382 169.636 108.33 169.639 108.277C169.643 108.224 169.661 108.173 169.693 108.13C169.726 108.077 170.176 107.764 171.043 107.19C171.916 106.61 172.383 106.314 172.443 106.3C172.494 106.289 172.548 106.293 172.596 106.312C172.645 106.331 172.688 106.363 172.718 106.406C172.749 106.448 172.767 106.499 172.769 106.551C172.772 106.603 172.759 106.655 172.733 106.7C172.646 106.86 172.206 107.204 171.413 107.73Z" fill="#0F2335"/>
<path d="M154.573 108.69C153.553 108.9 153.353 109.83 152.703 110.25C152.653 110.285 152.593 110.303 152.533 110.301C152.472 110.3 152.413 110.28 152.364 110.243C152.316 110.207 152.28 110.156 152.262 110.098C152.243 110.04 152.244 109.978 152.263 109.92C152.683 108.52 153.376 107.723 154.343 107.53C155.303 107.337 156.246 107.803 157.173 108.93C157.21 108.976 157.233 109.031 157.238 109.09C157.242 109.148 157.229 109.207 157.2 109.258C157.171 109.309 157.127 109.35 157.074 109.375C157.021 109.401 156.961 109.409 156.903 109.4C156.133 109.27 155.593 108.49 154.573 108.69Z" fill="#0F2335"/>
<path d="M141.373 108.3C142.393 108.32 143.043 108.717 143.323 109.49C143.423 109.77 143.43 110.003 143.343 110.19C143.276 110.33 143.17 110.423 143.023 110.47C142.928 110.504 142.825 110.502 142.732 110.463C142.639 110.424 142.565 110.351 142.523 110.26C142.156 109.42 141.766 108.997 141.353 108.99C140.946 108.983 140.543 109.39 140.143 110.21C140.099 110.3 140.024 110.37 139.932 110.407C139.839 110.444 139.736 110.445 139.643 110.41C139.496 110.357 139.393 110.26 139.333 110.12C139.253 109.927 139.266 109.693 139.373 109.42C139.68 108.653 140.346 108.28 141.373 108.3Z" fill="#595958"/>
<path d="M114.973 123.29C115.093 124.583 115.343 125.94 115.723 127.36C116.016 128.48 115.78 130.62 115.013 133.78C115.007 133.813 114.993 133.85 114.973 133.89L113.243 137.72C113.173 137.872 113.151 138.042 113.182 138.207C113.212 138.372 113.293 138.523 113.413 138.64C114.78 140.007 115.6 140.787 115.873 140.98C116.22 141.22 116.516 141.327 116.763 141.3C117.043 141.267 117.386 141.047 117.793 140.64C117.925 140.508 118.089 140.406 118.273 140.34C118.886 140.14 119.526 140.04 120.193 140.04C120.284 140.041 120.375 140.021 120.457 139.982C120.539 139.943 120.612 139.887 120.669 139.816C120.726 139.746 120.766 139.664 120.785 139.576C120.805 139.488 120.804 139.397 120.783 139.31C118.413 129.11 124.983 120.95 135.063 120C135.227 119.98 135.383 119.915 135.513 119.81C135.713 119.643 135.953 119.51 136.233 119.41C136.206 119.49 136.216 119.583 136.263 119.69C136.284 119.747 136.32 119.797 136.368 119.834C136.415 119.871 136.473 119.894 136.533 119.9C142.913 120.49 149.863 125.25 150.393 132.18C150.396 132.231 150.41 132.281 150.434 132.326C150.459 132.371 150.493 132.41 150.534 132.44C150.575 132.471 150.622 132.492 150.672 132.502C150.722 132.513 150.773 132.512 150.823 132.5C150.896 132.48 150.976 132.447 151.063 132.4L150.983 133.58C150.976 133.66 150.986 133.74 151.012 133.816C151.038 133.892 151.079 133.963 151.133 134.022C151.188 134.082 151.254 134.131 151.328 134.165C151.402 134.199 151.482 134.218 151.563 134.22C156.196 134.307 159.93 134.98 162.763 136.24C167.69 138.433 171.58 142.4 174.433 148.14C174.449 148.171 174.457 148.207 174.457 148.245C174.457 148.283 174.449 148.322 174.433 148.36C174.406 148.427 174.383 148.5 174.363 148.58C174.343 148.651 174.347 148.731 174.373 148.81C176.153 153.657 175.96 158.66 173.793 163.82C173.66 164.135 173.626 164.483 173.696 164.819C173.765 165.155 173.935 165.462 174.183 165.7C176.633 168.04 178.943 169.78 179.343 172.41C179.362 172.534 179.407 172.652 179.474 172.759C179.541 172.865 179.629 172.958 179.733 173.03C180.153 173.33 180.353 173.643 180.333 173.97C180.32 174.183 180.246 174.377 180.123 174.52L170.683 185.77C170.596 185.877 170.536 186.07 170.503 186.35L170.053 186.48C169.852 186.532 169.673 186.648 169.543 186.81L166.723 190.25C166.514 190.507 166.413 190.835 166.441 191.165C166.469 191.495 166.624 191.802 166.873 192.02L169.273 194.1C168.86 194.467 168.483 194.69 168.143 194.77C167.83 194.73 167.61 194.763 167.483 194.87C164.676 194.597 162.586 194.303 161.213 193.99C153.52 192.25 145.793 190.68 138.033 189.28C137.423 189.17 136.733 189.33 136.053 189.32C136.08 189.133 135.916 188.973 135.563 188.84C134.05 188.12 133.406 187.237 133.633 186.19C134.12 184.483 134.226 182.75 133.953 180.99C133.943 180.927 133.91 180.871 133.86 180.832C133.809 180.793 133.746 180.774 133.683 180.78H133.673C133.616 180.783 133.563 180.81 133.524 180.857C133.484 180.903 133.463 180.966 133.463 181.03L133.303 185.89C133.11 185.997 132.92 186.053 132.733 186.06C132.566 186.067 132.393 185.983 132.213 185.81C129.96 183.65 127.486 181.763 124.793 180.15C120.213 177.397 115.783 174.773 111.503 172.28L116.363 144.35C116.37 144.307 116.37 144.264 116.361 144.221C116.352 144.179 116.334 144.139 116.31 144.104C116.286 144.068 116.255 144.038 116.22 144.016C116.184 143.993 116.145 143.977 116.103 143.97L115.853 143.93C115.842 143.927 115.83 143.927 115.819 143.929C115.807 143.931 115.796 143.935 115.787 143.942C115.777 143.949 115.769 143.957 115.764 143.967C115.758 143.977 115.754 143.989 115.753 144L110.963 171.62C110.636 171.787 110.35 171.787 110.103 171.62C107.21 169.647 104.406 167.957 101.693 166.55C101.516 166.46 101.311 166.442 101.122 166.5C100.933 166.558 100.776 166.687 100.683 166.86C100.09 167.947 100.023 169.067 100.483 170.22C101.243 172.133 103.553 176.657 107.413 183.79C107.444 183.848 107.458 183.914 107.454 183.979C107.449 184.045 107.427 184.108 107.388 184.161C107.349 184.214 107.297 184.256 107.236 184.28C107.175 184.305 107.108 184.312 107.043 184.3L85.4631 180.66C85.4302 180.653 85.3995 180.64 85.3731 180.62C85.2531 180.513 85.1831 180.39 85.1631 180.25C85.1898 177.643 85.7764 175.173 86.9231 172.84C86.9352 172.818 86.9428 172.793 86.9453 172.768C86.9479 172.743 86.9453 172.717 86.9379 172.693C86.9304 172.669 86.9182 172.647 86.9019 172.627C86.8856 172.608 86.8656 172.592 86.8431 172.58V172.57C86.7971 172.545 86.7439 172.537 86.6939 172.548C86.644 172.56 86.6009 172.589 86.5731 172.63C85.0598 174.897 84.3598 177.397 84.4731 180.13L84.2531 180.38C84.1831 180.462 84.0895 180.522 83.9843 180.55C83.8791 180.579 83.7672 180.575 83.6631 180.54C81.9631 179.973 80.0731 180.117 77.9931 180.97C77.8321 181.034 77.6931 181.144 77.5928 181.285C77.4925 181.427 77.4353 181.594 77.4279 181.767C77.4205 181.941 77.4633 182.112 77.5511 182.262C77.639 182.411 77.7681 182.532 77.9231 182.61L85.5831 186.51L85.3131 188.02C81.6731 187.52 76.3231 186.46 73.2631 188.94C73.1337 189.047 73.0341 189.185 72.9741 189.341C72.9141 189.498 72.8958 189.667 72.9211 189.832C72.9464 189.997 73.0143 190.152 73.1182 190.281C73.2221 190.411 73.3582 190.51 73.5131 190.57L77.6431 192.21C77.2831 193.743 77.9198 194.007 79.5531 193L84.8831 195.22C84.9303 195.236 84.9703 195.268 84.9959 195.312C85.0216 195.356 85.0312 195.409 85.0231 195.46L84.9831 195.72C84.9587 195.848 84.8856 195.961 84.7792 196.036C84.6728 196.11 84.5415 196.141 84.4131 196.12C79.1998 195.233 76.5898 194.79 76.5831 194.79C75.3231 194.697 74.3064 195.073 73.5331 195.92C73.4656 195.993 73.4152 196.079 73.3858 196.174C73.3563 196.268 73.3485 196.368 73.3629 196.466C73.3773 196.564 73.4135 196.658 73.469 196.74C73.5244 196.822 73.5976 196.89 73.6831 196.94L85.5631 203.8C85.6432 203.844 85.7059 203.914 85.7408 203.998C85.7757 204.082 85.7808 204.176 85.7551 204.264C85.7294 204.351 85.6745 204.427 85.5996 204.48C85.5246 204.532 85.4341 204.557 85.3431 204.55C83.1331 204.4 78.8231 203.66 77.7831 205.46C77.7342 205.543 77.7037 205.635 77.6935 205.73C77.6834 205.826 77.6938 205.922 77.7241 206.013C77.7545 206.104 77.804 206.188 77.8694 206.258C77.9348 206.328 78.0145 206.383 78.1031 206.42L87.1631 210.27L87.2831 213.4L59.1131 210.34C59.1531 208.867 59.5898 207.523 60.4231 206.31C60.4677 206.24 60.4843 206.156 60.4693 206.076C60.4544 205.996 60.4092 205.926 60.3431 205.88L60.3231 205.87C60.2572 205.83 60.1788 205.815 60.1043 205.83C60.0298 205.845 59.9649 205.888 59.9231 205.95C58.9898 207.33 58.4764 208.847 58.3831 210.5C52.5364 210.193 47.0231 211.717 41.8431 215.07C42.2098 211.983 43.5364 209.217 45.8231 206.77C45.8862 206.701 45.9342 206.62 45.964 206.531C45.9938 206.442 46.0049 206.348 45.9964 206.254C45.988 206.16 45.9602 206.068 45.9149 205.985C45.8696 205.902 45.8077 205.829 45.7331 205.77C41.2998 202.35 38.6098 198.19 37.6631 193.29C35.8164 183.683 38.8198 176.053 46.6731 170.4C46.6904 170.388 46.7048 170.372 46.7154 170.354C46.7259 170.335 46.7323 170.315 46.7342 170.293C46.7361 170.271 46.7334 170.249 46.7263 170.228C46.7192 170.207 46.7079 170.187 46.6931 170.17C41.0398 163.783 40.6031 156.953 45.3831 149.68C46.9964 147.22 49.7931 145.467 53.7731 144.42C53.9294 144.379 54.0694 144.292 54.1748 144.17C54.2801 144.049 54.3458 143.899 54.3631 143.74C54.3898 143.473 54.4764 142.45 54.6231 140.67C55.2331 133.17 58.9131 127.23 65.3331 123.4C71.1131 119.96 79.2431 119.49 85.2131 122.61C85.4538 122.735 85.7338 122.761 85.9935 122.683C86.2532 122.604 86.4719 122.428 86.6031 122.19C90.5031 115.17 98.1531 111.92 105.723 114.59C108.356 115.517 110.656 117.333 112.623 120.04C113.416 121.127 114.2 122.21 114.973 123.29ZM109.153 139.61C109.199 139.566 109.226 139.505 109.228 139.44C109.23 139.375 109.206 139.31 109.163 139.26C105.683 135.367 101.516 134.16 96.6631 135.64C93.5098 136.607 91.4664 138.727 90.5331 142C90.5209 142.041 90.5169 142.084 90.5214 142.126C90.5259 142.168 90.5387 142.209 90.5592 142.246C90.5797 142.283 90.6074 142.316 90.6407 142.343C90.674 142.369 90.7122 142.389 90.7531 142.4H90.7631C90.8498 142.424 90.9418 142.416 91.0201 142.377C91.0983 142.338 91.1567 142.271 91.1831 142.19C93.8631 133.99 103.483 133.84 108.793 139.79C108.803 139.803 108.815 139.814 108.829 139.822C108.844 139.83 108.859 139.834 108.876 139.835C108.892 139.836 108.908 139.834 108.923 139.828C108.938 139.821 108.952 139.812 108.963 139.8L109.153 139.61ZM123.703 142.19L123.823 142.43C123.83 142.445 123.839 142.458 123.85 142.469C123.862 142.479 123.876 142.488 123.891 142.494C123.905 142.499 123.921 142.502 123.937 142.501C123.953 142.501 123.969 142.497 123.983 142.49C131.183 138.78 140.243 142.43 139.803 151.17C139.798 151.259 139.828 151.346 139.888 151.413C139.948 151.48 140.032 151.522 140.123 151.53H140.133C140.219 151.536 140.304 151.507 140.369 151.451C140.435 151.395 140.475 151.316 140.483 151.23C140.79 147.79 139.626 145.037 136.993 142.97C132.933 139.803 128.543 139.43 123.823 141.85C123.763 141.88 123.717 141.933 123.695 141.996C123.672 142.059 123.675 142.129 123.703 142.19ZM77.8231 154.1C72.0564 152.133 67.3298 153.19 63.6431 157.27C63.5972 157.323 63.5381 157.363 63.4719 157.386C63.4056 157.409 63.3345 157.414 63.2656 157.401C63.1967 157.388 63.1325 157.357 63.0794 157.311C63.0263 157.265 62.9862 157.206 62.9631 157.14C61.1131 151.82 61.9831 145.24 66.7731 141.86C66.8296 141.821 66.8693 141.763 66.8841 141.696C66.899 141.629 66.8879 141.559 66.8531 141.5L66.8331 141.48C66.8148 141.451 66.7909 141.426 66.7629 141.406C66.7348 141.387 66.7032 141.373 66.6697 141.365C66.6363 141.358 66.6017 141.357 66.5679 141.363C66.5342 141.369 66.5019 141.382 66.4731 141.4C60.8831 145.12 60.2731 152.12 62.5931 157.95C62.6533 158.107 62.6816 158.275 62.6765 158.443C62.6713 158.611 62.6328 158.777 62.5631 158.93C61.2298 161.897 61.0931 164.85 62.1531 167.79C62.1684 167.829 62.1913 167.863 62.2203 167.893C62.2494 167.922 62.284 167.946 62.3223 167.962C62.3605 167.977 62.4015 167.985 62.4428 167.985C62.4842 167.985 62.5251 167.976 62.5631 167.96L62.7931 167.85C62.8038 167.845 62.8127 167.838 62.8182 167.828C62.8237 167.819 62.8254 167.809 62.8231 167.8C61.9431 164.853 61.9698 162.217 62.9031 159.89C64.5431 155.86 69.6231 153.18 73.7631 153.96C75.5031 154.293 76.8231 154.5 77.7231 154.58C77.7809 154.581 77.8371 154.561 77.8821 154.525C77.9271 154.488 77.9581 154.438 77.9699 154.381C77.9817 154.325 77.9735 154.266 77.9467 154.214C77.92 154.163 77.8763 154.123 77.8231 154.1ZM148.273 166.63C148.242 166.626 148.209 166.627 148.179 166.635C148.148 166.643 148.119 166.657 148.093 166.676C148.068 166.695 148.046 166.719 148.03 166.746C148.013 166.773 148.003 166.804 147.998 166.835C147.993 166.867 147.995 166.899 148.003 166.93C148.011 166.96 148.025 166.99 148.044 167.015C148.063 167.041 148.087 167.062 148.114 167.078C148.141 167.095 148.172 167.106 148.203 167.11C149.07 167.343 150.373 167.607 152.113 167.9C156.253 168.6 160.083 172.85 160.223 177.19C160.296 179.683 159.413 182.157 157.573 184.61C157.567 184.618 157.564 184.628 157.566 184.639C157.568 184.651 157.574 184.661 157.583 184.67L157.753 184.85C157.783 184.879 157.819 184.902 157.859 184.917C157.898 184.932 157.94 184.939 157.982 184.937C158.025 184.935 158.066 184.925 158.104 184.906C158.142 184.888 158.176 184.862 158.203 184.83C160.203 182.45 161.093 179.643 160.873 176.41C160.861 176.242 160.882 176.074 160.935 175.914C160.988 175.754 161.072 175.607 161.183 175.48C165.363 170.83 167.203 164.07 163.263 158.67C163.242 158.642 163.216 158.618 163.186 158.601C163.156 158.583 163.123 158.571 163.089 158.567C163.054 158.562 163.019 158.564 162.985 158.574C162.952 158.583 162.92 158.599 162.893 158.62L162.873 158.63C162.819 158.673 162.783 158.736 162.774 158.805C162.765 158.874 162.782 158.944 162.823 159C166.133 163.81 164.683 170.26 161.113 174.59C161.069 174.644 161.011 174.685 160.946 174.709C160.881 174.733 160.81 174.74 160.742 174.729C160.673 174.718 160.608 174.689 160.554 174.646C160.5 174.602 160.458 174.545 160.433 174.48C158.393 169.393 154.34 166.777 148.273 166.63Z" fill="#FEA8ED"/>
<path d="M153.913 116.26C153.981 116.248 154.05 116.264 154.106 116.303C154.162 116.343 154.201 116.403 154.213 116.47L154.243 116.63C154.287 116.873 154.283 117.123 154.231 117.364C154.179 117.605 154.081 117.833 153.942 118.036C153.802 118.238 153.625 118.411 153.419 118.544C153.213 118.677 152.984 118.767 152.743 118.81L152.533 118.85C152.292 118.894 152.045 118.89 151.805 118.838C151.566 118.785 151.339 118.685 151.137 118.544C150.936 118.403 150.763 118.223 150.631 118.015C150.498 117.806 150.407 117.574 150.363 117.33L150.333 117.18C150.326 117.146 150.326 117.111 150.332 117.076C150.339 117.042 150.353 117.009 150.372 116.98C150.392 116.952 150.417 116.927 150.446 116.908C150.476 116.889 150.509 116.876 150.543 116.87L153.913 116.26Z" fill="white"/>
<path d="M136.263 118.43L136.233 119.41C135.953 119.51 135.713 119.644 135.513 119.81C135.383 119.915 135.227 119.98 135.063 120C124.983 120.95 118.413 129.11 120.783 139.31C120.804 139.397 120.805 139.488 120.785 139.576C120.765 139.664 120.726 139.746 120.669 139.816C120.612 139.887 120.539 139.943 120.457 139.982C120.374 140.021 120.284 140.041 120.193 140.04C119.526 140.04 118.886 140.14 118.273 140.34C118.089 140.406 117.925 140.508 117.793 140.64C117.386 141.047 117.043 141.267 116.763 141.3C116.516 141.327 116.22 141.22 115.873 140.98C115.6 140.787 114.78 140.007 113.413 138.64C113.293 138.523 113.212 138.372 113.182 138.207C113.151 138.042 113.173 137.872 113.243 137.72L114.973 133.89C114.993 133.85 115.006 133.813 115.013 133.78C115.78 130.62 116.016 128.48 115.723 127.36C115.343 125.94 115.093 124.584 114.973 123.29C121.973 120.897 129.07 119.277 136.263 118.43Z" fill="#97D4EF"/>
<path d="M168.793 119.77C170.5 119.923 171.91 120.227 173.023 120.68C189.75 127.48 203.1 138.383 213.073 153.39C214.12 154.963 214.683 156.627 214.763 158.38C216.75 203.28 218.603 245.173 220.323 284.06C220.327 284.161 220.311 284.262 220.275 284.356C220.239 284.451 220.184 284.537 220.114 284.61C220.044 284.683 219.96 284.741 219.867 284.78C219.774 284.82 219.674 284.84 219.573 284.84H73.3431C73.1953 284.84 73.0493 284.808 72.9149 284.748C72.7805 284.688 72.6606 284.6 72.5631 284.49C71.0098 282.79 70.2065 280.81 70.1531 278.55C69.9998 271.39 71.0265 264.25 73.2331 257.13L86.2831 260.41C86.3919 260.438 86.5056 260.44 86.6154 260.417C86.7252 260.393 86.8281 260.345 86.9162 260.275C87.0042 260.205 87.075 260.116 87.123 260.015C87.1711 259.913 87.1951 259.802 87.1931 259.69C87.1531 256.91 84.5331 255.97 81.4331 254.01C81.37 253.978 81.321 253.923 81.2953 253.857C81.2696 253.791 81.269 253.718 81.2937 253.651C81.3183 253.585 81.3664 253.53 81.429 253.496C81.4915 253.463 81.5642 253.454 81.6331 253.47L94.4531 255.64C94.6216 255.67 94.7948 255.658 94.958 255.607C95.1212 255.556 95.2698 255.466 95.3912 255.346C95.5127 255.225 95.6035 255.077 95.656 254.915C95.7085 254.752 95.7213 254.579 95.6931 254.41C95.2231 251.53 90.4331 249.75 87.2231 248.1C87.156 248.065 87.1048 248.007 87.0789 247.936C87.053 247.866 87.0542 247.789 87.0823 247.718C87.1103 247.647 87.1633 247.588 87.2315 247.552C87.2996 247.515 87.3784 247.504 87.4531 247.52C90.9998 248.447 94.2431 249.24 97.1831 249.9C98.0131 250.09 98.8831 250.84 99.8131 250.6C99.9569 250.563 100.09 250.492 100.204 250.393C100.318 250.294 100.411 250.168 100.475 250.024C100.54 249.88 100.576 249.721 100.581 249.557C100.586 249.393 100.559 249.227 100.503 249.07C99.9165 247.397 98.9865 246.117 97.7131 245.23C93.1598 242.03 90.4498 240.207 89.5831 239.76C89.5216 239.73 89.4724 239.678 89.4452 239.614C89.418 239.551 89.4146 239.479 89.4358 239.415C89.457 239.35 89.5012 239.296 89.5598 239.264C89.6184 239.232 89.6873 239.223 89.7531 239.24L101.263 241.44C102.676 242.02 103.436 242.763 103.543 243.67C103.856 246.53 104.02 248.017 104.033 248.13C104.086 248.61 104.254 249.073 104.523 249.48C105.836 251.46 107.033 252.963 108.113 253.99C108.98 254.823 110.116 255.547 111.523 256.16C112.443 256.56 113.62 256.787 115.053 256.84C119.473 257 122.91 255.523 125.363 252.41C125.65 252.043 125.953 251.86 126.273 251.86C126.7 251.867 127.026 252.063 127.253 252.45C127.371 252.64 127.537 252.795 127.733 252.9C131.453 254.86 134.566 255.943 137.073 256.15C147.766 257.037 155.323 252.663 159.743 243.03C172.756 245.843 184.54 243.577 195.093 236.23C199.283 233.32 203.233 229.09 205.893 224.62C205.978 224.48 206.007 224.313 205.976 224.152C205.945 223.991 205.854 223.848 205.723 223.75C196.256 216.67 186.77 209.153 177.263 201.2C174.833 199.17 172.093 196.31 169.273 194.1L166.873 192.02C166.624 191.802 166.469 191.495 166.441 191.165C166.413 190.835 166.514 190.507 166.723 190.25L169.543 186.81C169.673 186.648 169.852 186.532 170.053 186.48L170.503 186.35C184.256 199.997 199.306 212.01 215.653 222.39C215.711 222.424 215.779 222.435 215.844 222.42C215.909 222.405 215.966 222.366 216.003 222.31L216.013 222.3C216.047 222.243 216.058 222.174 216.043 222.109C216.028 222.044 215.989 221.987 215.933 221.95C199.586 211.483 184.503 199.423 170.683 185.77L180.123 174.52C180.246 174.377 180.32 174.183 180.333 173.97C180.353 173.643 180.153 173.33 179.733 173.03C179.629 172.958 179.541 172.865 179.474 172.759C179.407 172.652 179.362 172.533 179.343 172.41C178.943 169.78 176.633 168.04 174.183 165.7C173.935 165.462 173.766 165.154 173.696 164.819C173.626 164.483 173.66 164.135 173.793 163.82C175.96 158.66 176.153 153.657 174.373 148.81C174.347 148.731 174.344 148.651 174.363 148.58C174.383 148.5 174.406 148.427 174.433 148.36C174.449 148.322 174.457 148.282 174.457 148.244C174.457 148.206 174.449 148.171 174.433 148.14C171.58 142.4 167.69 138.433 162.763 136.24C159.93 134.98 156.196 134.307 151.563 134.22C151.482 134.217 151.402 134.199 151.328 134.165C151.254 134.131 151.188 134.082 151.133 134.022C151.079 133.963 151.038 133.892 151.012 133.816C150.986 133.74 150.976 133.66 150.983 133.58L151.063 132.4L151.213 132.19C151.289 132.088 151.392 132.008 151.51 131.96C151.628 131.913 151.757 131.899 151.883 131.92C154.876 132.467 157.296 131.683 159.143 129.57C159.538 129.123 160.07 128.824 160.653 128.72C165.743 127.82 167.383 124.55 168.793 119.77ZM168.613 129.61C167.393 131.717 165.43 133.603 162.723 135.27C162.691 135.291 162.665 135.32 162.649 135.355C162.633 135.39 162.627 135.428 162.633 135.466C162.638 135.504 162.654 135.54 162.679 135.569C162.704 135.598 162.737 135.619 162.773 135.63C162.9 135.663 163.063 135.637 163.263 135.55C165.643 134.47 167.606 132.593 169.153 129.92C170.7 127.247 171.35 124.607 171.103 122C171.076 121.787 171.02 121.633 170.933 121.54C170.905 121.513 170.87 121.494 170.831 121.487C170.793 121.479 170.753 121.483 170.717 121.498C170.681 121.513 170.65 121.538 170.628 121.57C170.606 121.603 170.594 121.641 170.593 121.68C170.493 124.86 169.833 127.503 168.613 129.61ZM208.603 153.46C196.833 154.44 187.883 164.22 180.773 173.42C180.74 173.463 180.724 173.517 180.73 173.571C180.735 173.625 180.762 173.675 180.803 173.71L180.813 173.72C180.86 173.758 180.919 173.776 180.979 173.77C181.039 173.765 181.094 173.736 181.133 173.69C189.213 164.73 195.903 155.26 208.903 153.94C208.933 153.938 208.961 153.924 208.982 153.902C209.002 153.879 209.013 153.85 209.013 153.82V153.81C209.009 153.759 208.995 153.71 208.973 153.664C208.95 153.619 208.918 153.579 208.88 153.546C208.842 153.514 208.798 153.489 208.75 153.474C208.702 153.459 208.652 153.455 208.603 153.46Z" fill="#97D4EF"/>
<path d="M169.153 129.92C167.606 132.593 165.643 134.47 163.263 135.55C163.063 135.637 162.9 135.663 162.773 135.63C162.736 135.619 162.704 135.598 162.679 135.569C162.654 135.54 162.638 135.504 162.633 135.466C162.627 135.428 162.633 135.39 162.649 135.355C162.665 135.32 162.691 135.291 162.723 135.27C165.43 133.603 167.393 131.717 168.613 129.61C169.833 127.503 170.493 124.86 170.593 121.68C170.593 121.641 170.605 121.603 170.627 121.57C170.649 121.538 170.681 121.513 170.717 121.498C170.753 121.483 170.793 121.479 170.831 121.487C170.87 121.494 170.905 121.513 170.933 121.54C171.02 121.633 171.076 121.787 171.103 122C171.35 124.607 170.7 127.247 169.153 129.92Z" fill="#0F2335"/>
<path d="M27.5831 138.91C27.5131 136.69 27.6331 133.17 30.4131 132.83C30.5783 132.808 30.7466 132.835 30.8975 132.908C31.0484 132.981 31.1754 133.096 31.2631 133.24C33.1531 136.43 31.6931 143.28 30.8431 147.14C30.8236 147.234 30.7807 147.321 30.7183 147.394C30.656 147.467 30.5762 147.523 30.4865 147.557C30.3968 147.591 30.2999 147.602 30.2049 147.588C30.1099 147.575 30.0199 147.538 29.9431 147.48C27.5931 145.77 20.6931 140.52 21.0331 137.92C21.0616 137.72 21.1323 137.527 21.2407 137.355C21.3492 137.183 21.4932 137.035 21.6638 136.92C21.8344 136.805 22.0279 136.725 22.2325 136.685C22.4371 136.646 22.6483 136.647 22.8531 136.69C24.4331 137.017 25.8165 137.83 27.0031 139.13C27.0473 139.181 27.1063 139.218 27.172 139.235C27.2376 139.251 27.3068 139.247 27.3702 139.223C27.4335 139.199 27.488 139.156 27.5261 139.1C27.5642 139.044 27.5841 138.978 27.5831 138.91Z" fill="#FCC004"/>
<path d="M109.153 139.61L108.963 139.8C108.952 139.812 108.938 139.821 108.923 139.827C108.908 139.834 108.892 139.836 108.876 139.835C108.859 139.834 108.844 139.83 108.829 139.822C108.815 139.814 108.803 139.803 108.793 139.79C103.483 133.84 93.863 133.99 91.183 142.19C91.1566 142.271 91.0982 142.337 91.02 142.377C90.9418 142.416 90.8497 142.424 90.763 142.4H90.753C90.7121 142.389 90.6739 142.369 90.6406 142.343C90.6073 142.316 90.5796 142.283 90.5591 142.246C90.5387 142.209 90.5258 142.168 90.5213 142.126C90.5168 142.083 90.5208 142.041 90.533 142C91.4663 138.727 93.5097 136.607 96.663 135.64C101.516 134.16 105.683 135.367 109.163 139.26C109.206 139.31 109.229 139.375 109.228 139.44C109.226 139.505 109.199 139.566 109.153 139.61Z" fill="#010101"/>
<path d="M232.37 138.495C232.428 137.492 231.738 136.636 230.828 136.583C229.918 136.531 229.134 137.302 229.076 138.305C229.018 139.309 229.708 140.165 230.618 140.217C231.528 140.27 232.312 139.499 232.37 138.495Z" fill="#E69241"/>
<path d="M123.703 142.19C123.675 142.129 123.672 142.059 123.695 141.996C123.717 141.932 123.763 141.88 123.823 141.85C128.543 139.43 132.933 139.803 136.993 142.97C139.626 145.037 140.79 147.79 140.483 151.23C140.475 151.316 140.434 151.395 140.369 151.451C140.304 151.507 140.219 151.536 140.133 151.53H140.123C140.032 151.522 139.948 151.48 139.888 151.413C139.828 151.346 139.798 151.259 139.803 151.17C140.243 142.43 131.183 138.78 123.983 142.49C123.969 142.497 123.953 142.5 123.937 142.501C123.921 142.502 123.905 142.499 123.89 142.493C123.876 142.488 123.862 142.479 123.85 142.469C123.839 142.458 123.83 142.445 123.823 142.43L123.703 142.19Z" fill="#0F2335"/>
<path d="M77.8229 154.1C77.8761 154.123 77.9198 154.163 77.9466 154.214C77.9733 154.266 77.9815 154.325 77.9697 154.381C77.9579 154.438 77.9269 154.489 77.8819 154.525C77.8369 154.561 77.7807 154.581 77.7229 154.58C76.8229 154.5 75.5029 154.294 73.7629 153.96C69.6229 153.18 64.5429 155.86 62.9029 159.89C61.9696 162.217 61.9429 164.854 62.8229 167.8C62.8253 167.809 62.8236 167.819 62.8181 167.829C62.8126 167.838 62.8037 167.845 62.7929 167.85L62.5629 167.96C62.5249 167.976 62.484 167.985 62.4427 167.985C62.4013 167.985 62.3603 167.977 62.3221 167.962C62.2839 167.946 62.2492 167.922 62.2202 167.893C62.1911 167.864 62.1683 167.829 62.1529 167.79C61.0929 164.85 61.2296 161.897 62.5629 158.93C62.6326 158.777 62.6712 158.611 62.6763 158.443C62.6815 158.275 62.6531 158.107 62.5929 157.95C60.2729 152.12 60.8829 145.12 66.4729 141.4C66.5018 141.382 66.534 141.369 66.5678 141.363C66.6015 141.357 66.6361 141.358 66.6696 141.365C66.703 141.373 66.7347 141.387 66.7627 141.406C66.7908 141.426 66.8146 141.451 66.8329 141.48L66.8529 141.5C66.8877 141.559 66.8988 141.629 66.884 141.696C66.8691 141.763 66.8294 141.822 66.7729 141.86C61.9829 145.24 61.1129 151.82 62.9629 157.14C62.986 157.206 63.0262 157.265 63.0793 157.311C63.1324 157.357 63.1966 157.388 63.2655 157.401C63.3343 157.414 63.4055 157.409 63.4717 157.386C63.538 157.363 63.597 157.323 63.6429 157.27C67.3296 153.19 72.0563 152.134 77.8229 154.1Z" fill="#0F2335"/>
<path d="M111.503 172.28C111.016 171.973 110.836 171.753 110.963 171.62L115.753 144C115.754 143.989 115.758 143.977 115.764 143.967C115.769 143.957 115.777 143.949 115.787 143.942C115.796 143.935 115.807 143.931 115.819 143.929C115.83 143.927 115.842 143.927 115.853 143.93L116.103 143.97C116.145 143.977 116.184 143.993 116.22 144.016C116.255 144.038 116.286 144.068 116.31 144.104C116.334 144.139 116.351 144.179 116.361 144.221C116.37 144.264 116.37 144.307 116.363 144.35L111.503 172.28Z" fill="#0F2335"/>
<path d="M208.603 153.46C208.652 153.455 208.702 153.46 208.75 153.474C208.797 153.489 208.842 153.514 208.88 153.546C208.918 153.579 208.95 153.619 208.972 153.664C208.995 153.71 209.009 153.759 209.013 153.81V153.82C209.013 153.85 209.002 153.879 208.981 153.902C208.961 153.924 208.933 153.938 208.903 153.94C195.903 155.26 189.213 164.73 181.133 173.69C181.094 173.736 181.039 173.765 180.979 173.77C180.919 173.776 180.86 173.758 180.813 173.72L180.803 173.71C180.761 173.675 180.735 173.625 180.729 173.571C180.724 173.517 180.739 173.463 180.773 173.42C187.883 164.22 196.833 154.44 208.603 153.46Z" fill="#010101"/>
<path d="M148.273 166.63C154.34 166.777 158.393 169.393 160.433 174.48C160.458 174.545 160.5 174.602 160.554 174.646C160.608 174.689 160.673 174.718 160.742 174.729C160.81 174.74 160.881 174.733 160.946 174.709C161.011 174.685 161.068 174.644 161.113 174.59C164.683 170.26 166.133 163.81 162.823 159C162.782 158.944 162.764 158.874 162.774 158.805C162.783 158.736 162.819 158.673 162.873 158.63L162.893 158.62C162.92 158.599 162.952 158.583 162.985 158.574C163.019 158.564 163.054 158.562 163.088 158.567C163.123 158.571 163.156 158.583 163.186 158.601C163.216 158.618 163.242 158.642 163.263 158.67C167.203 164.07 165.363 170.83 161.183 175.48C161.072 175.607 160.988 175.754 160.935 175.914C160.881 176.074 160.86 176.242 160.873 176.41C161.093 179.643 160.203 182.45 158.203 184.83C158.175 184.862 158.142 184.888 158.104 184.906C158.066 184.925 158.024 184.935 157.982 184.937C157.94 184.939 157.898 184.932 157.859 184.917C157.819 184.902 157.783 184.879 157.753 184.85L157.583 184.67C157.574 184.661 157.568 184.651 157.566 184.639C157.564 184.628 157.567 184.618 157.573 184.61C159.413 182.157 160.296 179.683 160.223 177.19C160.083 172.85 156.253 168.6 152.113 167.9C150.373 167.607 149.07 167.343 148.203 167.11C148.171 167.106 148.141 167.095 148.114 167.078C148.086 167.062 148.062 167.041 148.043 167.015C148.024 166.99 148.011 166.96 148.003 166.93C147.995 166.899 147.993 166.867 147.998 166.835C148.002 166.804 148.013 166.773 148.03 166.746C148.046 166.719 148.067 166.695 148.093 166.676C148.118 166.657 148.148 166.643 148.178 166.635C148.209 166.627 148.241 166.626 148.273 166.63Z" fill="#010101"/>
<path d="M110.963 171.62C110.836 171.754 111.016 171.974 111.503 172.28C115.783 174.774 120.213 177.397 124.793 180.15C127.486 181.764 129.96 183.65 132.213 185.81C132.393 185.984 132.566 186.067 132.733 186.06C132.92 186.054 133.11 185.997 133.303 185.89C133.33 186.01 133.44 186.11 133.633 186.19C133.406 187.237 134.05 188.12 135.563 188.84C135.31 189.72 135.316 190.47 135.583 191.09C135.596 191.127 135.622 191.159 135.656 191.179C135.69 191.199 135.73 191.207 135.769 191.201C135.808 191.195 135.843 191.176 135.87 191.147C135.896 191.117 135.911 191.08 135.913 191.04L136.053 189.32C136.733 189.33 137.423 189.17 138.033 189.28C145.793 190.68 153.52 192.25 161.213 193.99C162.586 194.304 164.676 194.597 167.483 194.87L169.523 198.41C169.532 198.425 169.545 198.436 169.56 198.441C169.574 198.447 169.59 198.446 169.603 198.44L169.833 198.31C169.867 198.292 169.897 198.267 169.922 198.238C169.946 198.208 169.965 198.174 169.976 198.138C169.987 198.101 169.991 198.063 169.987 198.026C169.983 197.989 169.971 197.953 169.953 197.92L168.143 194.77C168.483 194.69 168.86 194.467 169.273 194.1C172.093 196.31 174.833 199.17 177.263 201.2C186.77 209.154 196.256 216.67 205.723 223.75C205.854 223.848 205.944 223.992 205.976 224.152C206.007 224.313 205.978 224.48 205.893 224.62C203.233 229.09 199.283 233.32 195.093 236.23C184.54 243.577 172.756 245.844 159.743 243.03C152.676 241.47 146.28 238.974 140.553 235.54C140.04 235.474 139.816 235.42 139.883 235.38C139.583 234.967 139.12 234.627 138.493 234.36C137.666 234.007 137.136 233.757 136.903 233.61C130.576 229.67 124.496 225.374 118.663 220.72C118.597 220.668 118.522 220.633 118.443 220.62C118.25 220.574 118.073 220.587 117.913 220.66C117.786 220.36 117.636 220.197 117.463 220.17C112.33 219.584 107.266 218.29 102.273 216.29C97.4796 214.37 92.693 212.454 87.913 210.54C87.5663 210.574 87.3163 210.484 87.163 210.27L78.103 206.42C78.0143 206.383 77.9346 206.328 77.8693 206.258C77.8039 206.188 77.7544 206.104 77.724 206.013C77.6937 205.922 77.6832 205.826 77.6934 205.73C77.7036 205.635 77.7341 205.543 77.783 205.46C78.823 203.66 83.133 204.4 85.343 204.55C85.434 204.557 85.5245 204.532 85.5995 204.48C85.6744 204.427 85.7293 204.351 85.755 204.264C85.7806 204.176 85.7756 204.082 85.7407 203.998C85.7058 203.914 85.6431 203.844 85.563 203.8L73.683 196.94C73.5975 196.89 73.5243 196.822 73.4689 196.74C73.4134 196.658 73.3772 196.564 73.3628 196.466C73.3484 196.368 73.3562 196.268 73.3856 196.174C73.4151 196.079 73.4655 195.993 73.533 195.92C74.3063 195.074 75.323 194.697 76.583 194.79C76.5896 194.79 79.1996 195.234 84.413 196.12C84.5413 196.141 84.6726 196.11 84.779 196.036C84.8855 195.961 84.9586 195.848 84.983 195.72L85.023 195.46C85.0311 195.409 85.0214 195.356 84.9958 195.312C84.9702 195.268 84.9302 195.236 84.883 195.22L79.553 193C78.3463 192.787 77.7096 192.524 77.643 192.21L73.513 190.57C73.3581 190.51 73.2219 190.411 73.1181 190.281C73.0142 190.152 72.9463 189.997 72.921 189.832C72.8957 189.667 72.9139 189.498 72.974 189.341C73.034 189.185 73.1336 189.047 73.263 188.94C76.323 186.46 81.673 187.52 85.313 188.02L86.013 188.27C86.833 188.61 87.643 188.724 88.443 188.61C88.4953 188.603 88.5447 188.583 88.5861 188.55C88.6274 188.517 88.659 188.474 88.6775 188.424C88.696 188.375 88.7007 188.322 88.6911 188.27C88.6815 188.218 88.6579 188.17 88.623 188.13C88.063 187.524 87.333 187.134 86.433 186.96C86.0396 186.88 85.7563 186.73 85.583 186.51L77.923 182.61C77.768 182.532 77.6389 182.411 77.551 182.262C77.4632 182.112 77.4203 181.941 77.4277 181.768C77.4351 181.594 77.4924 181.427 77.5927 181.285C77.693 181.144 77.832 181.035 77.993 180.97C80.073 180.117 81.963 179.974 83.663 180.54C83.7671 180.575 83.879 180.579 83.9842 180.55C84.0894 180.522 84.183 180.463 84.253 180.38L84.473 180.13C84.6796 180.217 84.9096 180.257 85.163 180.25C85.183 180.39 85.253 180.514 85.373 180.62C85.3994 180.64 85.4301 180.654 85.463 180.66L107.043 184.3C107.108 184.312 107.174 184.305 107.235 184.28C107.296 184.256 107.349 184.214 107.388 184.161C107.426 184.108 107.449 184.045 107.454 183.979C107.458 183.914 107.444 183.848 107.413 183.79C103.553 176.657 101.243 172.134 100.483 170.22C100.023 169.067 100.09 167.947 100.683 166.86C100.776 166.687 100.933 166.558 101.122 166.5C101.311 166.442 101.516 166.46 101.693 166.55C104.406 167.957 107.21 169.647 110.103 171.62C110.35 171.787 110.636 171.787 110.963 171.62ZM86.7893 196.567C86.7492 196.671 86.9545 196.865 87.3601 197.106C87.7656 197.347 88.3382 197.615 88.9518 197.852C89.5654 198.089 90.1697 198.275 90.632 198.369C91.0942 198.462 91.3765 198.457 91.4167 198.353C91.4567 198.249 91.2514 198.055 90.8459 197.814C90.4403 197.574 89.8678 197.305 89.2542 197.068C88.6406 196.832 88.0362 196.646 87.574 196.552C87.1117 196.458 86.8294 196.464 86.7893 196.567ZM86.4824 204.375C86.4591 204.424 86.5319 204.517 86.6964 204.651C86.861 204.785 87.1141 204.955 87.4413 205.154C87.7686 205.352 88.1635 205.574 88.6037 205.807C89.0438 206.039 89.5205 206.278 90.0065 206.51C90.4925 206.742 90.9783 206.962 91.4361 207.158C91.894 207.353 92.3149 207.52 92.675 207.65C93.035 207.78 93.327 207.869 93.5344 207.913C93.7418 207.956 93.8604 207.954 93.8836 207.905C93.9068 207.857 93.8341 207.763 93.6695 207.629C93.505 207.496 93.2519 207.325 92.9246 207.127C92.5974 206.928 92.2024 206.707 91.7623 206.474C91.3221 206.241 90.8455 206.002 90.3595 205.77C89.8735 205.538 89.3877 205.318 88.9298 205.123C88.472 204.927 88.051 204.76 87.691 204.63C87.3309 204.501 87.0389 204.412 86.8315 204.368C86.6242 204.324 86.5055 204.326 86.4824 204.375Z" fill="#E69241"/>
<path d="M85.163 180.25C84.9097 180.257 84.6797 180.217 84.473 180.13C84.3597 177.397 85.0597 174.897 86.573 172.63C86.6008 172.589 86.6439 172.56 86.6939 172.548C86.7438 172.537 86.797 172.545 86.843 172.57V172.58C86.8656 172.592 86.8856 172.608 86.9019 172.627C86.9181 172.646 86.9304 172.669 86.9378 172.693C86.9453 172.717 86.9478 172.743 86.9453 172.768C86.9427 172.793 86.9352 172.818 86.923 172.84C85.7764 175.173 85.1897 177.643 85.163 180.25Z" fill="#010101"/>
<path d="M133.633 186.19C133.44 186.11 133.33 186.01 133.303 185.89L133.463 181.03C133.463 180.966 133.484 180.903 133.523 180.857C133.563 180.81 133.616 180.783 133.673 180.78H133.683C133.746 180.774 133.809 180.793 133.86 180.832C133.91 180.871 133.943 180.927 133.953 180.99C134.226 182.75 134.12 184.483 133.633 186.19Z" fill="#0F2335"/>
<path d="M254.703 187.339C255.57 186.937 255.986 185.993 255.632 185.232C255.279 184.47 254.29 184.179 253.423 184.581C252.556 184.984 252.14 185.927 252.494 186.689C252.847 187.45 253.836 187.741 254.703 187.339Z" fill="#7CB8D3"/>
<path d="M170.683 185.77C184.503 199.423 199.586 211.483 215.933 221.95C215.989 221.987 216.028 222.044 216.043 222.109C216.058 222.174 216.047 222.243 216.013 222.3L216.003 222.31C215.966 222.366 215.909 222.405 215.844 222.42C215.779 222.435 215.71 222.424 215.653 222.39C199.306 212.01 184.256 199.997 170.503 186.35C170.536 186.07 170.596 185.877 170.683 185.77Z" fill="#010101"/>
<path d="M86.433 186.96L86.013 188.27L85.313 188.02L85.583 186.51C85.7563 186.73 86.0397 186.88 86.433 186.96Z" fill="#0F2335"/>
<path d="M86.0129 188.27L86.4329 186.96C87.3329 187.134 88.0629 187.524 88.6229 188.13C88.6579 188.17 88.6815 188.218 88.6911 188.27C88.7007 188.322 88.696 188.375 88.6775 188.424C88.659 188.474 88.6273 188.517 88.586 188.55C88.5447 188.583 88.4952 188.603 88.4429 188.61C87.6429 188.724 86.8329 188.61 86.0129 188.27Z" fill="#F3AEC8"/>
<path d="M135.563 188.84C135.916 188.973 136.08 189.133 136.053 189.32L135.913 191.04C135.911 191.08 135.896 191.117 135.87 191.147C135.843 191.176 135.808 191.195 135.769 191.201C135.73 191.207 135.69 191.199 135.656 191.179C135.622 191.159 135.596 191.127 135.583 191.09C135.316 190.47 135.31 189.72 135.563 188.84Z" fill="#010101"/>
<path d="M79.5529 193C77.9196 194.007 77.2829 193.744 77.6429 192.21C77.7096 192.524 78.3463 192.787 79.5529 193Z" fill="#595958"/>
<path d="M2.14305 196.69C2.98252 196.69 3.66305 196.01 3.66305 195.17C3.66305 194.331 2.98252 193.65 2.14305 193.65C1.30357 193.65 0.623047 194.331 0.623047 195.17C0.623047 196.01 1.30357 196.69 2.14305 196.69Z" fill="#F9D0E2"/>
<path d="M168.143 194.77L169.953 197.92C169.971 197.952 169.983 197.988 169.987 198.026C169.991 198.063 169.987 198.101 169.976 198.137C169.965 198.174 169.946 198.208 169.922 198.237C169.897 198.267 169.867 198.292 169.833 198.31L169.603 198.44C169.59 198.446 169.574 198.446 169.56 198.441C169.545 198.435 169.532 198.424 169.523 198.41L167.483 194.87C167.61 194.763 167.83 194.73 168.143 194.77Z" fill="#010101"/>
<path d="M89.2543 197.068C87.9765 196.575 86.8729 196.351 86.7894 196.567C86.7059 196.784 87.6741 197.359 88.9519 197.852C90.2297 198.345 91.3333 198.569 91.4168 198.353C91.5003 198.136 90.5321 197.561 89.2543 197.068Z" fill="#010101"/>
<path d="M90.3595 205.77C88.3157 204.795 86.5798 204.171 86.4823 204.375C86.3849 204.58 87.9626 205.535 90.0064 206.51C92.0502 207.485 93.7861 208.11 93.8835 207.905C93.981 207.701 92.4032 206.745 90.3595 205.77Z" fill="#010101"/>
<path d="M59.1131 210.34C58.6131 210.22 58.3698 210.273 58.3831 210.5C58.4764 208.847 58.9897 207.33 59.9231 205.95C59.9649 205.888 60.0298 205.845 60.1043 205.83C60.1788 205.815 60.2572 205.83 60.3231 205.87L60.3431 205.88C60.4092 205.926 60.4544 205.996 60.4693 206.076C60.4843 206.156 60.4677 206.24 60.4231 206.31C59.5897 207.523 59.1531 208.867 59.1131 210.34Z" fill="#010101"/>
<path d="M58.3831 210.5C58.3698 210.273 58.6131 210.22 59.1131 210.34L87.2831 213.4C87.3764 213.24 87.6364 213.293 88.0631 213.56C89.0031 213.54 89.8598 213.673 90.6331 213.96C90.7838 214.016 90.9183 214.107 91.0247 214.226C91.1311 214.344 91.2061 214.487 91.2431 214.64C91.5364 215.84 91.0131 216.847 89.6731 217.66L75.9131 223.56C75.721 223.644 75.511 223.68 75.3006 223.666C75.0903 223.652 74.8855 223.588 74.7031 223.48L73.3131 222.68C73.2837 222.665 73.2498 222.662 73.2183 222.672C73.1867 222.681 73.1599 222.702 73.1431 222.73L72.9931 222.98C72.9778 223.006 72.9679 223.035 72.9641 223.065C72.9603 223.095 72.9627 223.126 72.9711 223.156C72.9794 223.186 72.9936 223.214 73.0128 223.238C73.0321 223.263 73.0559 223.284 73.0831 223.3C85.4031 230.007 92.9564 234.057 95.7431 235.45C97.6764 236.423 99.2331 237.833 100.413 239.68C100.465 239.76 100.492 239.853 100.492 239.947C100.492 240.042 100.464 240.135 100.412 240.214C100.36 240.294 100.286 240.357 100.2 240.395C100.113 240.433 100.017 240.445 99.9231 240.43L78.6431 236.84C78.6378 236.839 78.6323 236.838 78.6269 236.839C78.6215 236.84 78.6163 236.842 78.6116 236.844C78.6069 236.847 78.6029 236.851 78.5997 236.855C78.5965 236.86 78.5943 236.865 78.5931 236.87L78.5431 237.18C78.5359 237.218 78.5365 237.257 78.5448 237.295C78.553 237.333 78.5688 237.369 78.5912 237.401C78.6136 237.433 78.6421 237.459 78.6751 237.48C78.708 237.5 78.7448 237.514 78.7831 237.52L86.2931 238.79C86.5644 238.836 86.8248 238.928 87.0631 239.06C90.9098 241.253 94.4064 243.537 97.5531 245.91C98.7731 246.837 99.4931 247.94 99.7131 249.22C99.7265 249.299 99.7202 249.381 99.6948 249.457C99.6694 249.533 99.6256 249.602 99.5673 249.657C99.509 249.713 99.438 249.753 99.3605 249.774C99.2831 249.796 99.2015 249.798 99.1231 249.78L75.6431 244.01C75.6312 244.007 75.619 244.008 75.6082 244.011C75.5975 244.015 75.5887 244.021 75.5831 244.03C75.5231 244.15 75.5298 244.277 75.6031 244.41C75.6486 244.494 75.7226 244.561 75.8131 244.6C77.9331 245.43 81.8831 246.04 84.7131 247.53C87.4198 248.957 90.1331 250.39 92.8531 251.83C93.9398 252.403 94.6198 253.097 94.8931 253.91C94.9382 254.048 94.9473 254.195 94.9194 254.338C94.8915 254.48 94.8275 254.613 94.7339 254.722C94.6402 254.832 94.5199 254.915 94.3848 254.964C94.2498 255.013 94.1045 255.025 93.9631 255L72.6431 251.4C72.5667 251.388 72.4885 251.406 72.4238 251.451C72.359 251.495 72.3124 251.563 72.2931 251.64L72.1831 252.08C72.1773 252.103 72.1763 252.127 72.1803 252.151C72.1843 252.174 72.1932 252.196 72.2064 252.216C72.2196 252.236 72.2368 252.253 72.2569 252.266C72.277 252.278 72.2996 252.287 72.3231 252.29L78.9331 253.22C79.0379 253.233 79.1374 253.271 79.2231 253.33L86.2631 257.97C86.4361 258.086 86.5622 258.26 86.6189 258.461C86.6757 258.662 86.6594 258.876 86.573 259.065C86.4865 259.255 86.3356 259.408 86.147 259.497C85.9584 259.585 85.7444 259.604 85.5431 259.55L51.4831 250.01C41.5031 246.21 33.9131 238.4 35.2431 227.12C35.7964 222.413 37.9964 218.397 41.8431 215.07C47.0231 211.717 52.5364 210.193 58.3831 210.5Z" fill="#E69241"/>
<path d="M87.9131 210.54L88.0631 213.56C87.6364 213.293 87.3764 213.24 87.2831 213.4L87.1631 210.27C87.3164 210.483 87.5664 210.573 87.9131 210.54Z" fill="#010101"/>
<path d="M117.463 220.17C115.936 222.87 113.653 224.7 110.613 225.66C110.592 225.667 110.574 225.678 110.558 225.692C110.542 225.706 110.529 225.724 110.521 225.743C110.512 225.762 110.508 225.782 110.508 225.802C110.509 225.822 110.514 225.842 110.523 225.86L110.643 226.13C110.666 226.182 110.706 226.224 110.755 226.248C110.805 226.272 110.861 226.276 110.913 226.26C113.993 225.273 116.326 223.407 117.913 220.66C118.073 220.587 118.25 220.573 118.443 220.62C118.522 220.633 118.597 220.668 118.663 220.72C124.496 225.373 130.576 229.67 136.903 233.61C137.136 233.757 137.666 234.007 138.493 234.36C139.12 234.627 139.583 234.967 139.883 235.38C136.203 239.967 131.616 241.02 126.123 238.54C126.052 238.507 125.97 238.504 125.895 238.532C125.82 238.56 125.758 238.617 125.723 238.69L125.713 238.7C125.68 238.769 125.676 238.848 125.702 238.921C125.728 238.994 125.782 239.055 125.853 239.09C131.82 241.863 136.72 240.68 140.553 235.54C146.28 238.973 152.676 241.47 159.743 243.03C155.323 252.663 147.766 257.037 137.073 256.15C134.566 255.943 131.453 254.86 127.733 252.9C127.536 252.795 127.371 252.64 127.253 252.45C127.026 252.063 126.7 251.867 126.273 251.86C125.953 251.86 125.65 252.043 125.363 252.41C122.91 255.523 119.473 257 115.053 256.84C113.62 256.787 112.443 256.56 111.523 256.16C110.116 255.547 108.98 254.823 108.113 253.99C107.033 252.963 105.836 251.46 104.523 249.48C104.253 249.073 104.085 248.61 104.033 248.13C104.02 248.017 103.856 246.53 103.543 243.67C103.436 242.763 102.676 242.02 101.263 241.44C101.15 239.007 99.9229 237.147 97.5829 235.86C87.0762 230.093 80.0296 226.253 76.4429 224.34C76.4099 224.322 76.3827 224.295 76.3644 224.262C76.3462 224.229 76.3376 224.191 76.3397 224.154C76.3418 224.116 76.3544 224.08 76.3762 224.049C76.398 224.018 76.4281 223.994 76.4629 223.98L88.3829 218.72C88.4919 218.672 88.6154 218.668 88.7273 218.709C88.8393 218.75 88.9309 218.833 88.9829 218.94C89.9162 220.88 91.4096 222.463 93.4629 223.69C93.4997 223.712 93.5405 223.727 93.5829 223.734C93.6252 223.74 93.6682 223.738 93.7092 223.728C93.7503 223.718 93.7886 223.699 93.8219 223.674C93.8552 223.648 93.8827 223.616 93.9029 223.58L93.9229 223.55C93.9422 223.515 93.9544 223.477 93.9588 223.438C93.9633 223.398 93.9598 223.358 93.9486 223.32C93.9375 223.282 93.9188 223.246 93.8938 223.215C93.8688 223.184 93.8379 223.159 93.8029 223.14C91.5496 221.927 90.1729 220.1 89.6729 217.66C91.0129 216.847 91.5362 215.84 91.2429 214.64C91.2059 214.486 91.1309 214.344 91.0245 214.225C90.9181 214.107 90.7836 214.016 90.6329 213.96C89.8596 213.673 89.0029 213.54 88.0629 213.56L87.9129 210.54C92.6929 212.453 97.4796 214.37 102.273 216.29C107.266 218.29 112.33 219.583 117.463 220.17ZM103.454 217.296C103.46 217.261 103.459 217.225 103.452 217.191C103.444 217.156 103.43 217.123 103.409 217.094C103.389 217.065 103.363 217.041 103.333 217.022C103.303 217.002 103.27 216.989 103.235 216.983L103.097 216.959C103.062 216.953 103.026 216.954 102.992 216.961C102.957 216.969 102.924 216.983 102.895 217.004C102.866 217.024 102.842 217.05 102.823 217.08C102.804 217.11 102.791 217.143 102.784 217.178L99.6518 234.944C99.6456 234.979 99.6464 235.015 99.6541 235.049C99.6618 235.084 99.6762 235.117 99.6965 235.146C99.7168 235.175 99.7427 235.199 99.7726 235.219C99.8025 235.238 99.8359 235.251 99.8708 235.257L100.009 235.281C100.044 235.287 100.079 235.286 100.114 235.279C100.149 235.271 100.181 235.257 100.21 235.236C100.239 235.216 100.264 235.19 100.283 235.16C100.302 235.13 100.315 235.097 100.321 235.062L103.454 217.296Z" fill="#FEA8ED"/>
<path d="M103.235 216.983L103.097 216.959C102.95 216.933 102.81 217.031 102.784 217.178L99.6518 234.944C99.6259 235.091 99.724 235.231 99.8708 235.257L100.009 235.281C100.156 235.307 100.296 235.209 100.321 235.062L103.454 217.296C103.48 217.149 103.382 217.009 103.235 216.983Z" fill="#010101"/>
<path d="M89.6729 217.66C90.1729 220.1 91.5496 221.927 93.8029 223.14C93.8379 223.159 93.8688 223.185 93.8938 223.215C93.9189 223.246 93.9375 223.282 93.9487 223.32C93.9598 223.358 93.9633 223.398 93.9589 223.438C93.9544 223.477 93.9422 223.515 93.9229 223.55L93.9029 223.58C93.8827 223.617 93.8552 223.649 93.8219 223.674C93.7886 223.699 93.7503 223.718 93.7093 223.728C93.6682 223.738 93.6252 223.74 93.5829 223.734C93.5406 223.727 93.4997 223.712 93.4629 223.69C91.4096 222.463 89.9162 220.88 88.9829 218.94C88.9309 218.833 88.8393 218.75 88.7273 218.709C88.6154 218.668 88.4919 218.672 88.3829 218.72L76.4629 223.98C76.4281 223.995 76.3981 224.018 76.3763 224.049C76.3545 224.08 76.3418 224.116 76.3397 224.154C76.3376 224.191 76.3462 224.229 76.3644 224.262C76.3827 224.295 76.4099 224.322 76.4429 224.34C80.0296 226.253 87.0762 230.093 97.5829 235.86C99.9229 237.147 101.15 239.007 101.263 241.44L89.7529 239.24C89.6871 239.223 89.6182 239.232 89.5596 239.264C89.501 239.296 89.4568 239.35 89.4356 239.415C89.4144 239.479 89.4178 239.551 89.445 239.615C89.4722 239.678 89.5214 239.73 89.5829 239.76C90.4496 240.207 93.1596 242.03 97.7129 245.23C98.9862 246.117 99.9162 247.397 100.503 249.07C100.559 249.227 100.586 249.393 100.581 249.557C100.576 249.721 100.54 249.881 100.475 250.025C100.41 250.168 100.318 250.294 100.204 250.393C100.09 250.492 99.9567 250.563 99.8129 250.6C98.8829 250.84 98.0129 250.09 97.1829 249.9C94.2429 249.24 90.9996 248.447 87.4529 247.52C87.3781 247.504 87.2994 247.516 87.2312 247.552C87.1631 247.588 87.1101 247.647 87.082 247.718C87.054 247.789 87.0528 247.866 87.0787 247.937C87.1046 248.007 87.1558 248.065 87.2229 248.1C90.4329 249.75 95.2229 251.53 95.6929 254.41C95.7211 254.579 95.7083 254.752 95.6558 254.915C95.6033 255.078 95.5125 255.225 95.391 255.346C95.2696 255.466 95.121 255.556 94.9578 255.607C94.7945 255.658 94.6214 255.67 94.4529 255.64L81.6329 253.47C81.5639 253.454 81.4913 253.463 81.4288 253.496C81.3662 253.53 81.3181 253.585 81.2934 253.651C81.2688 253.718 81.2694 253.791 81.2951 253.857C81.3208 253.923 81.3698 253.978 81.4329 254.01C84.5329 255.97 87.1529 256.91 87.1929 259.69C87.1948 259.802 87.1709 259.914 87.1228 260.015C87.0748 260.117 87.004 260.206 86.916 260.275C86.8279 260.345 86.725 260.393 86.6152 260.417C86.5054 260.44 86.3917 260.438 86.2829 260.41L73.2329 257.13C68.0196 255.757 63.1229 254.343 58.5429 252.89C55.4562 251.91 53.1029 250.95 51.4829 250.01L85.5429 259.55C85.7442 259.604 85.9582 259.585 86.1468 259.497C86.3354 259.408 86.4863 259.255 86.5728 259.065C86.6592 258.876 86.6755 258.662 86.6188 258.461C86.562 258.26 86.4359 258.086 86.2629 257.97L79.2229 253.33C79.1372 253.271 79.0377 253.233 78.9329 253.22L72.3229 252.29C72.2994 252.287 72.2768 252.278 72.2567 252.266C72.2366 252.253 72.2194 252.236 72.2062 252.216C72.193 252.196 72.1841 252.174 72.1801 252.151C72.1761 252.127 72.1771 252.103 72.1829 252.08L72.2929 251.64C72.3122 251.563 72.3588 251.495 72.4236 251.451C72.4883 251.407 72.5665 251.388 72.6429 251.4L93.9629 255C94.1043 255.025 94.2496 255.013 94.3847 254.964C94.5197 254.915 94.64 254.832 94.7337 254.722C94.8273 254.613 94.8913 254.48 94.9192 254.338C94.9471 254.195 94.938 254.048 94.8929 253.91C94.6196 253.097 93.9396 252.403 92.8529 251.83C90.1329 250.39 87.4196 248.957 84.7129 247.53C81.8829 246.04 77.9329 245.43 75.8129 244.6C75.7224 244.561 75.6484 244.494 75.6029 244.41C75.5296 244.277 75.5229 244.15 75.5829 244.03C75.5885 244.021 75.5973 244.015 75.6081 244.011C75.6188 244.008 75.631 244.007 75.6429 244.01L99.1229 249.78C99.2013 249.798 99.2829 249.796 99.3603 249.774C99.4378 249.753 99.5088 249.713 99.5671 249.657C99.6254 249.602 99.6692 249.533 99.6946 249.457C99.72 249.381 99.7263 249.299 99.7129 249.22C99.4929 247.94 98.7729 246.837 97.5529 245.91C94.4062 243.537 90.9096 241.253 87.0629 239.06C86.8246 238.928 86.5642 238.836 86.2929 238.79L78.7829 237.52C78.7446 237.514 78.7078 237.5 78.6749 237.48C78.6419 237.459 78.6134 237.433 78.591 237.401C78.5686 237.369 78.5528 237.333 78.5446 237.295C78.5363 237.257 78.5357 237.218 78.5429 237.18L78.5929 236.87C78.5941 236.865 78.5963 236.86 78.5995 236.855C78.6027 236.851 78.6067 236.847 78.6114 236.844C78.6161 236.842 78.6213 236.84 78.6267 236.839C78.6321 236.838 78.6376 236.839 78.6429 236.84L99.9229 240.43C100.017 240.445 100.113 240.433 100.199 240.395C100.286 240.357 100.36 240.294 100.412 240.215C100.464 240.135 100.491 240.042 100.492 239.947C100.492 239.853 100.464 239.76 100.413 239.68C99.2329 237.833 97.6762 236.423 95.7429 235.45C92.9562 234.057 85.4029 230.007 73.0829 223.3C73.0557 223.284 73.0319 223.263 73.0126 223.238C72.9934 223.214 72.9792 223.186 72.9709 223.156C72.9625 223.126 72.9602 223.095 72.9639 223.065C72.9677 223.035 72.9776 223.006 72.9929 222.98L73.1429 222.73C73.1597 222.702 73.1865 222.681 73.2181 222.672C73.2496 222.662 73.2835 222.665 73.3129 222.68L74.7029 223.48C74.8853 223.589 75.0901 223.652 75.3005 223.666C75.5108 223.68 75.7208 223.644 75.9129 223.56L89.6729 217.66Z" fill="#0F2335"/>
<path d="M117.463 220.17C117.636 220.197 117.786 220.36 117.913 220.66C116.326 223.407 113.993 225.274 110.913 226.26C110.861 226.276 110.805 226.272 110.756 226.248C110.706 226.224 110.666 226.182 110.643 226.13L110.523 225.86C110.514 225.842 110.509 225.823 110.508 225.802C110.508 225.782 110.512 225.762 110.521 225.743C110.529 225.724 110.542 225.707 110.558 225.692C110.574 225.678 110.593 225.667 110.613 225.66C113.653 224.7 115.936 222.87 117.463 220.17Z" fill="#010101"/>
<path d="M139.883 235.38C139.816 235.42 140.04 235.473 140.553 235.54C136.72 240.68 131.82 241.863 125.853 239.09C125.782 239.055 125.728 238.994 125.702 238.921C125.676 238.848 125.68 238.769 125.713 238.7L125.723 238.69C125.758 238.617 125.82 238.56 125.895 238.532C125.97 238.504 126.052 238.507 126.123 238.54C131.616 241.02 136.203 239.967 139.883 235.38Z" fill="#010101"/>
<path d="M19.163 263.97C20.1682 263.97 20.983 263.155 20.983 262.15C20.983 261.145 20.1682 260.33 19.163 260.33C18.1579 260.33 17.343 261.145 17.343 262.15C17.343 263.155 18.1579 263.97 19.163 263.97Z" fill="#E69241"/>
<path d="M201.513 302.43C204.973 305.63 209.59 307.11 215.363 306.87C215.4 306.864 215.443 306.874 215.483 306.9C215.65 307 215.68 307.143 215.573 307.33C215.567 307.34 215.559 307.349 215.551 307.356C215.542 307.363 215.533 307.367 215.523 307.37C209.736 307.977 204.913 306.493 201.053 302.92C197.2 299.347 195.356 294.65 195.523 288.83C195.526 288.812 195.536 288.794 195.553 288.78C195.733 288.66 195.876 288.68 195.983 288.84C196.013 288.874 196.03 288.913 196.033 288.95C196.226 294.73 198.053 299.223 201.513 302.43Z" fill="#010101"/>
<path d="M89.7329 302.95C85.8996 306.49 81.1129 307.954 75.3729 307.34C75.3643 307.34 75.3554 307.337 75.3468 307.332C75.3382 307.327 75.3301 307.319 75.3229 307.31C75.2163 307.124 75.2463 306.98 75.4129 306.88C75.4496 306.857 75.4884 306.847 75.5229 306.85C81.2563 307.097 85.8429 305.634 89.2829 302.46C92.7163 299.28 94.5329 294.824 94.7329 289.09C94.732 289.055 94.7462 289.016 94.7729 288.98C94.8863 288.82 95.0329 288.8 95.2129 288.92C95.2218 288.927 95.229 288.936 95.2342 288.944C95.2393 288.953 95.2423 288.962 95.2429 288.97C95.4029 294.744 93.5663 299.403 89.7329 302.95Z" fill="#010101"/>
<path d="M142.403 315.74C146.523 315.74 150.633 315.74 154.733 315.74C154.839 315.74 154.941 315.781 155.016 315.854C155.091 315.928 155.133 316.027 155.133 316.13V316.38C155.133 316.42 155.117 316.458 155.089 316.486C155.061 316.514 155.023 316.53 154.983 316.53H143.193C143.087 316.53 142.985 316.572 142.91 316.647C142.835 316.722 142.793 316.824 142.793 316.93C142.82 318.77 142.876 325.08 142.963 335.86C142.97 336.32 142.793 336.55 142.433 336.55C142.073 336.55 141.893 336.32 141.893 335.86C141.953 325.08 141.993 318.77 142.013 316.93C142.013 316.824 141.971 316.722 141.896 316.647C141.821 316.572 141.719 316.53 141.613 316.53L129.823 316.56C129.783 316.56 129.745 316.544 129.717 316.516C129.689 316.488 129.673 316.45 129.673 316.41V316.16C129.673 316.057 129.715 315.958 129.79 315.884C129.865 315.811 129.967 315.77 130.073 315.77C134.173 315.757 138.283 315.747 142.403 315.74Z" fill="#595958"/>
</svg>
