<svg width="143" height="42" viewBox="0 0 143 42" fill="none" xmlns="http://www.w3.org/2000/svg">
<rect x="68" y="6" width="75" height="31" fill="#96CAE4"/>
<path d="M22.596 11.54V31H19.404V17.672L13.468 31H11.256L5.292 17.672V31H2.1V11.54H5.544L12.376 26.8L19.18 11.54H22.596ZM28.4154 13.528C27.8367 13.528 27.3514 13.332 26.9594 12.94C26.5674 12.548 26.3714 12.0627 26.3714 11.484C26.3714 10.9053 26.5674 10.42 26.9594 10.028C27.3514 9.636 27.8367 9.44 28.4154 9.44C28.9754 9.44 29.4514 9.636 29.8434 10.028C30.2354 10.42 30.4314 10.9053 30.4314 11.484C30.4314 12.0627 30.2354 12.548 29.8434 12.94C29.4514 13.332 28.9754 13.528 28.4154 13.528ZM29.9834 15.572V31H26.7914V15.572H29.9834ZM41.9582 15.32C43.1716 15.32 44.2542 15.572 45.2062 16.076C46.1769 16.58 46.9329 17.3267 47.4742 18.316C48.0156 19.3053 48.2862 20.5 48.2862 21.9V31H45.1222V22.376C45.1222 20.9947 44.7769 19.94 44.0862 19.212C43.3956 18.4653 42.4529 18.092 41.2582 18.092C40.0636 18.092 39.1116 18.4653 38.4022 19.212C37.7116 19.94 37.3662 20.9947 37.3662 22.376V31H34.1742V15.572H37.3662V17.336C37.8889 16.7013 38.5516 16.2067 39.3542 15.852C40.1756 15.4973 41.0436 15.32 41.9582 15.32ZM51.2938 23.216C51.2938 21.6667 51.6111 20.2947 52.2458 19.1C52.8991 17.9053 53.7765 16.9813 54.8778 16.328C55.9978 15.656 57.2391 15.32 58.6018 15.32C59.6098 15.32 60.5991 15.544 61.5698 15.992C62.5591 16.4213 63.3431 17 63.9218 17.728V10.28H67.1418V31H63.9218V28.676C63.3991 29.4227 62.6711 30.0387 61.7378 30.524C60.8231 31.0093 59.7685 31.252 58.5738 31.252C57.2298 31.252 55.9978 30.916 54.8778 30.244C53.7765 29.5533 52.8991 28.6013 52.2458 27.388C51.6111 26.156 51.2938 24.7653 51.2938 23.216ZM63.9218 23.272C63.9218 22.208 63.6978 21.284 63.2498 20.5C62.8205 19.716 62.2511 19.1187 61.5418 18.708C60.8325 18.2973 60.0671 18.092 59.2458 18.092C58.4245 18.092 57.6591 18.2973 56.9498 18.708C56.2405 19.1 55.6618 19.688 55.2138 20.472C54.7845 21.2373 54.5698 22.152 54.5698 23.216C54.5698 24.28 54.7845 25.2133 55.2138 26.016C55.6618 26.8187 56.2405 27.4347 56.9498 27.864C57.6778 28.2747 58.4431 28.48 59.2458 28.48C60.0671 28.48 60.8325 28.2747 61.5418 27.864C62.2511 27.4533 62.8205 26.856 63.2498 26.072C63.6978 25.2693 63.9218 24.336 63.9218 23.272Z" fill="black"/>
<path d="M91.8304 11.54V31H88.6384V17.672L82.7024 31H80.4904L74.5264 17.672V31H71.3344V11.54H74.7784L81.6104 26.8L88.4144 11.54H91.8304ZM94.9618 23.216C94.9618 21.6667 95.2791 20.2947 95.9138 19.1C96.5671 17.9053 97.4444 16.9813 98.5458 16.328C99.6658 15.656 100.898 15.32 102.242 15.32C103.455 15.32 104.51 15.5627 105.406 16.048C106.32 16.5147 107.048 17.1027 107.59 17.812V15.572H110.81V31H107.59V28.704C107.048 29.432 106.311 30.0387 105.378 30.524C104.444 31.0093 103.38 31.252 102.186 31.252C100.86 31.252 99.6471 30.916 98.5458 30.244C97.4444 29.5533 96.5671 28.6013 95.9138 27.388C95.2791 26.156 94.9618 24.7653 94.9618 23.216ZM107.59 23.272C107.59 22.208 107.366 21.284 106.918 20.5C106.488 19.716 105.919 19.1187 105.21 18.708C104.5 18.2973 103.735 18.092 102.914 18.092C102.092 18.092 101.327 18.2973 100.618 18.708C99.9084 19.1 99.3298 19.688 98.8818 20.472C98.4524 21.2373 98.2378 22.152 98.2378 23.216C98.2378 24.28 98.4524 25.2133 98.8818 26.016C99.3298 26.8187 99.9084 27.4347 100.618 27.864C101.346 28.2747 102.111 28.48 102.914 28.48C103.735 28.48 104.5 28.2747 105.21 27.864C105.919 27.4533 106.488 26.856 106.918 26.072C107.366 25.2693 107.59 24.336 107.59 23.272ZM118.726 18.176V26.716C118.726 27.2947 118.857 27.7147 119.118 27.976C119.398 28.2187 119.865 28.34 120.518 28.34H122.478V31H119.958C118.521 31 117.42 30.664 116.654 29.992C115.889 29.32 115.506 28.228 115.506 26.716V18.176H113.686V15.572H115.506V11.736H118.726V15.572H122.478V18.176H118.726ZM139.56 22.908C139.56 23.4867 139.523 24.0093 139.448 24.476H127.66C127.754 25.708 128.211 26.6973 129.032 27.444C129.854 28.1907 130.862 28.564 132.056 28.564C133.774 28.564 134.987 27.8453 135.696 26.408H139.14C138.674 27.8267 137.824 28.9933 136.592 29.908C135.379 30.804 133.867 31.252 132.056 31.252C130.582 31.252 129.256 30.9253 128.08 30.272C126.923 29.6 126.008 28.6667 125.336 27.472C124.683 26.2587 124.356 24.8587 124.356 23.272C124.356 21.6853 124.674 20.2947 125.308 19.1C125.962 17.8867 126.867 16.9533 128.024 16.3C129.2 15.6467 130.544 15.32 132.056 15.32C133.512 15.32 134.81 15.6373 135.948 16.272C137.087 16.9067 137.974 17.8027 138.608 18.96C139.243 20.0987 139.56 21.4147 139.56 22.908ZM136.228 21.9C136.21 20.724 135.79 19.7813 134.968 19.072C134.147 18.3627 133.13 18.008 131.916 18.008C130.815 18.008 129.872 18.3627 129.088 19.072C128.304 19.7627 127.838 20.7053 127.688 21.9H136.228Z" fill="white"/>
</svg>
