<svg width="24" height="24" viewBox="0 0 24 24" fill="none" xmlns="http://www.w3.org/2000/svg">
<path d="M8.9799 11.0301H18.5799C18.6942 11.0305 18.8043 11.07 18.8905 11.1415C18.9767 11.213 19.0332 11.3118 19.0499 11.4201L19.1499 11.7901C19.1682 11.858 19.1708 11.9292 19.1573 11.9982C19.1439 12.0672 19.1148 12.1322 19.0723 12.1882C19.0298 12.2442 18.9751 12.2897 18.9122 12.3212C18.8494 12.3528 18.7802 12.3695 18.7099 12.3701H8.74989C8.70245 12.3708 8.65637 12.3861 8.61797 12.414C8.57956 12.4418 8.55072 12.4809 8.53539 12.5258C8.52005 12.5707 8.51898 12.6192 8.53232 12.6648C8.54566 12.7103 8.57276 12.7506 8.60989 12.7801C9.42323 13.4601 9.95322 14.0535 10.1999 14.5601C10.2584 14.6701 10.2747 14.7978 10.2456 14.9189C10.2165 15.0401 10.144 15.1464 10.0418 15.2178C9.93967 15.2892 9.81493 15.3207 9.69113 15.3064C9.56734 15.2921 9.45306 15.2329 9.3699 15.1401L6.41989 12.2001C6.29715 12.0765 6.22827 11.9093 6.22827 11.7351C6.22827 11.5609 6.29715 11.3938 6.41989 11.2701L9.31989 8.37013C9.40025 8.29286 9.50292 8.2429 9.6133 8.22735C9.72369 8.2118 9.83616 8.23145 9.93474 8.2835C10.0333 8.33556 10.113 8.41737 10.1624 8.5173C10.2118 8.61724 10.2284 8.7302 10.2099 8.84013C10.1166 9.3268 9.64989 9.88346 8.80989 10.5101C8.76226 10.5467 8.72715 10.5971 8.7094 10.6545C8.69165 10.7118 8.69213 10.7733 8.71078 10.8303C8.72944 10.8874 8.76535 10.9372 8.81355 10.973C8.86175 11.0088 8.91988 11.0288 8.9799 11.0301Z" fill="#010101"/>
</svg>
