<svg width="24" height="24" viewBox="0 0 24 24" fill="none" xmlns="http://www.w3.org/2000/svg">
<path d="M16.4144 12.5023L6.81439 12.5023C6.7001 12.5019 6.58996 12.4624 6.50379 12.3909C6.41763 12.3194 6.36111 12.2207 6.34439 12.1123L6.24439 11.7423C6.22605 11.6745 6.22351 11.6033 6.23696 11.5343C6.25041 11.4653 6.2795 11.4003 6.32198 11.3443C6.36447 11.2883 6.41923 11.2428 6.48206 11.2112C6.54488 11.1797 6.6141 11.163 6.6844 11.1623L16.6444 11.1623C16.6918 11.1617 16.7379 11.1464 16.7763 11.1185C16.8147 11.0906 16.8436 11.0516 16.8589 11.0067C16.8742 10.9618 16.8753 10.9132 16.862 10.8677C16.8486 10.8222 16.8215 10.7819 16.7844 10.7523C15.9711 10.0723 15.4411 9.47901 15.1944 8.97234C15.1358 8.86234 15.1196 8.7347 15.1487 8.61353C15.1778 8.49236 15.2503 8.38604 15.3525 8.31466C15.4546 8.24328 15.5794 8.21177 15.7032 8.22608C15.827 8.2404 15.9412 8.29954 16.0244 8.39234L18.9744 11.3323C19.0971 11.456 19.166 11.6231 19.166 11.7973C19.166 11.9716 19.0971 12.1387 18.9744 12.2623L16.0744 15.1623C15.994 15.2396 15.8914 15.2896 15.781 15.3051C15.6706 15.3207 15.5581 15.301 15.4595 15.249C15.361 15.1969 15.2813 15.1151 15.2319 15.0152C15.1825 14.9152 15.1659 14.8023 15.1844 14.6923C15.2777 14.2057 15.7444 13.649 16.5844 13.0223C16.632 12.9858 16.6671 12.9354 16.6849 12.878C16.7026 12.8207 16.7022 12.7592 16.6835 12.7022C16.6648 12.6451 16.6289 12.5952 16.5807 12.5594C16.5325 12.5236 16.4744 12.5037 16.4144 12.5023Z" fill="#010101"/>
</svg>
