<svg width="24" height="24" viewBox="0 0 24 24" fill="none" xmlns="http://www.w3.org/2000/svg">
<path d="M13 11.5C13 11.2239 12.7761 11 12.5 11C12.2239 11 12 11.2239 12 11.5L13 11.5ZM12.1464 16.8536C12.3417 17.0488 12.6583 17.0488 12.8536 16.8536L16.0355 13.6716C16.2308 13.4763 16.2308 13.1597 16.0355 12.9645C15.8403 12.7692 15.5237 12.7692 15.3284 12.9645L12.5 15.7929L9.67157 12.9645C9.47631 12.7692 9.15973 12.7692 8.96447 12.9645C8.7692 13.1597 8.7692 13.4763 8.96447 13.6716L12.1464 16.8536ZM12.5 11.5L12 11.5L12 16.5L12.5 16.5L13 16.5L13 11.5L12.5 11.5Z" fill="black"/>
<circle cx="12.5" cy="9.5" r="0.5" fill="black"/>
<circle cx="12.5" cy="7.5" r="0.5" fill="black"/>
<circle cx="12.5" cy="5.5" r="0.5" fill="black"/>
</svg>
