<svg width="24" height="24" viewBox="0 0 24 24" fill="none" xmlns="http://www.w3.org/2000/svg">
<path d="M11.7602 5.00333C15.6136 4.99667 17.6769 5 17.9502 5.01333C18.365 5.03627 18.7554 5.21671 19.0416 5.51781C19.3278 5.8189 19.4883 6.21791 19.4902 6.63333C19.4902 7.93333 19.5169 10.5333 19.5702 14.4333C19.6002 16.8533 18.3003 16.9233 15.9703 16.7733C14.4636 16.6733 13.3435 17.4833 12.6102 19.2033C12.4502 19.59 12.1802 19.7833 11.8002 19.7833C11.4202 19.79 11.1436 19.5967 10.9703 19.2033C10.2369 17.49 9.11688 16.6867 7.61021 16.7933C5.28021 16.9533 3.98023 16.8933 4.00023 14.4733C4.03356 10.5733 4.04687 7.97333 4.04021 6.67333C4.03942 6.25781 4.19742 5.85767 4.48179 5.55471C4.76617 5.25174 5.15549 5.06883 5.57023 5.04333C5.8369 5.03 7.90024 5.01667 11.7602 5.00333ZM11.8202 17.9533C11.8802 17.9533 11.9402 17.94 12.0002 17.9133C12.1069 17.86 12.1635 17.83 12.1702 17.8233C12.4835 17.17 12.8769 16.5667 13.3503 16.0133C13.4695 15.878 13.6159 15.7697 13.7797 15.6955C13.9435 15.6214 14.1209 15.5831 14.3002 15.5833H17.2203C17.5173 15.5833 17.8021 15.4653 18.0122 15.2553C18.2222 15.0453 18.3403 14.7604 18.3403 14.4633V7.45333C18.3403 7.28702 18.3073 7.12236 18.2434 6.96883C18.1794 6.81531 18.0857 6.67595 17.9676 6.55882C17.8496 6.44169 17.7095 6.34909 17.5555 6.28636C17.4014 6.22363 17.2365 6.19202 17.0702 6.19334C15.5636 6.21334 13.8169 6.22667 11.8302 6.23334C9.84358 6.22 8.09692 6.20667 6.59025 6.19334C6.42479 6.19202 6.26066 6.2233 6.10728 6.28541C5.95391 6.34751 5.81426 6.43922 5.69633 6.5553C5.5784 6.67137 5.4845 6.80954 5.41997 6.96191C5.35543 7.11428 5.32154 7.27787 5.32023 7.44334L5.31023 14.4533C5.31023 14.7504 5.42825 15.0353 5.63829 15.2453C5.84833 15.4553 6.13318 15.5733 6.43022 15.5733L9.35026 15.5833C9.52954 15.5831 9.70696 15.6214 9.87077 15.6955C10.0346 15.7697 10.181 15.878 10.3002 16.0133C10.7669 16.5667 11.1569 17.17 11.4703 17.8233C11.4769 17.83 11.5336 17.86 11.6402 17.9133C11.7002 17.94 11.7602 17.9533 11.8202 17.9533Z" fill="#010101"/>
<path d="M11.8209 7.87336L11.7609 7.87315C11.435 7.87202 11.17 8.13524 11.1688 8.46109L11.1516 13.4011C11.1505 13.7269 11.4137 13.992 11.7395 13.9931L11.7995 13.9933C12.1254 13.9945 12.3905 13.7312 12.3916 13.4054L12.4088 8.46542C12.41 8.13957 12.1467 7.8745 11.8209 7.87336Z" fill="#010101"/>
<path d="M9.50051 10.9033C9.50718 11.6433 9.46384 12.1267 9.3705 12.3533C9.32925 12.4505 9.25892 12.5324 9.16915 12.5879C9.07938 12.6433 8.9746 12.6696 8.86928 12.663C8.76397 12.6564 8.6633 12.6173 8.58114 12.5511C8.49897 12.4849 8.43938 12.3948 8.41054 12.2933C8.37054 12.1533 8.3472 11.6933 8.34054 10.9133C8.33387 10.14 8.34718 9.68001 8.38051 9.53335C8.40689 9.43079 8.46457 9.33899 8.54549 9.27068C8.62641 9.20238 8.72658 9.16095 8.83211 9.15215C8.93764 9.14336 9.04325 9.16764 9.13436 9.22161C9.22547 9.27558 9.29754 9.35657 9.34054 9.45335C9.43387 9.68001 9.48718 10.1633 9.50051 10.9033Z" fill="#010101"/>
<path d="M15.3797 10.9715C15.4206 9.90634 15.1272 9.03034 14.7243 9.01486C14.3214 8.99939 13.9617 9.85029 13.9208 10.9154C13.8799 11.9805 14.1733 12.8565 14.5761 12.872C14.979 12.8875 15.3388 12.0366 15.3797 10.9715Z" fill="#010101"/>
</svg>
