<svg width="24" height="24" viewBox="0 0 24 24" fill="none" xmlns="http://www.w3.org/2000/svg">
<path d="M19.1857 12.7426H20.5669C20.6818 12.7426 20.7919 12.7876 20.8731 12.8677C20.9543 12.9478 21 13.0564 21 13.1697V13.5731C21.0002 13.6707 20.9806 13.7673 20.9424 13.8569C20.9042 13.9465 20.8483 14.0273 20.778 14.094C20.7078 14.1608 20.6247 14.2122 20.534 14.245C20.4434 14.2779 20.3469 14.2915 20.2508 14.285C17.4884 14.1426 12.9702 13.7036 11.6241 15.8985C11.582 15.9674 11.559 16.0465 11.5575 16.1275C11.556 16.2085 11.5761 16.2884 11.6156 16.3588C11.6551 16.4292 11.7126 16.4876 11.7821 16.5276C11.8515 16.5677 11.9304 16.5881 12.0103 16.5866C12.8375 16.5787 13.4813 16.7409 13.9417 17.0731C14.0375 17.1419 14.1174 17.231 14.1757 17.3343C14.2341 17.4376 14.2695 17.5526 14.2795 17.6712C14.2896 17.7898 14.274 17.9091 14.2338 18.021C14.1937 18.1329 14.1299 18.2345 14.0471 18.3188L11.5889 20.8103C11.5131 20.8866 11.4199 20.9426 11.3174 20.9733C11.215 21.0039 11.1066 21.0083 11.0021 20.9859C10.8976 20.9636 10.8003 20.9152 10.7188 20.8452C10.6373 20.7752 10.5743 20.6857 10.5355 20.5849C10.3404 20.0708 10.6213 19.5725 11.3782 19.09C11.476 19.0253 11.5525 18.9325 11.5978 18.8235C11.6432 18.7144 11.6553 18.5941 11.6326 18.4781C11.61 18.362 11.5535 18.2554 11.4707 18.1721C11.3878 18.0887 11.2822 18.0324 11.1675 18.0103L8.61578 17.5714C8.46822 17.5443 8.33129 17.474 8.22227 17.3693C8.11326 17.2646 8.03703 17.1302 8.00323 16.983C7.96942 16.8358 7.97954 16.6824 8.03231 16.5421C8.08507 16.4019 8.17812 16.2812 8.29972 16.1951C9.31418 15.4753 9.93068 14.985 10.1492 14.7239C10.1905 14.6772 10.2173 14.6192 10.2264 14.5571C10.2355 14.495 10.2264 14.4316 10.2002 14.3747C10.174 14.3179 10.1319 14.27 10.0792 14.2372C10.0264 14.2044 9.96529 14.188 9.90341 14.19L3.82836 14.2375C3.64401 14.2423 3.4636 14.183 3.31711 14.0694C3.17062 13.9559 3.06681 13.795 3.02305 13.6134C2.97929 13.4318 2.99822 13.2405 3.07656 13.0713C3.15491 12.9021 3.28802 12.7652 3.45378 12.6833C3.4928 12.6596 3.91414 12.7031 4.7179 12.8138C4.81278 12.8255 4.90901 12.818 5.00082 12.7919C5.09263 12.7658 5.17822 12.7216 5.25244 12.6619C5.32667 12.6021 5.38799 12.5281 5.43291 12.4441C5.47783 12.3602 5.50542 12.268 5.51393 12.1731C6.30989 3.74947 18.1556 4.15287 18.5418 12.1257C18.5508 12.2925 18.6226 12.4494 18.7424 12.5642C18.8622 12.679 19.0209 12.7428 19.1857 12.7426ZM7.11755 12.7426L16.8329 12.7189C16.8888 12.7189 16.9424 12.6964 16.9819 12.6563C17.0214 12.6163 17.0436 12.5619 17.0436 12.5053V12.3511C17.0406 11.0661 16.5163 9.83478 15.5859 8.92731C14.6555 8.01984 13.3949 7.51029 12.0806 7.51046H11.8699C11.2172 7.51054 10.5708 7.63649 9.96792 7.88113C9.36503 8.12576 8.81739 8.48428 8.35637 8.93612C7.89536 9.38797 7.53003 9.92427 7.28129 10.5143C7.03256 11.1044 6.90527 11.7366 6.90679 12.3748V12.529C6.90679 12.5857 6.929 12.64 6.96851 12.68C7.00803 12.7201 7.06167 12.7426 7.11755 12.7426Z" fill="#010101"/>
</svg>
