<svg width="24" height="24" viewBox="0 0 24 24" fill="none" xmlns="http://www.w3.org/2000/svg">
<path d="M7.19334 7.80826C6.83187 7.36189 6.19438 7.27897 5.76947 7.62306C5.34456 7.96715 5.29312 8.60794 5.65459 9.05432C6.01606 9.50069 6.65354 9.58361 7.07846 9.23952C7.50337 8.89543 7.5548 8.25464 7.19334 7.80826Z" fill="#010101"/>
<path d="M12.1839 7.7912L18.8338 7.75122C18.9179 7.75122 19.0011 7.76776 19.0788 7.79993C19.1564 7.83209 19.227 7.87923 19.2864 7.93866C19.3458 7.99809 19.393 8.06865 19.4251 8.1463C19.4573 8.22395 19.4738 8.30719 19.4738 8.39124V8.6712C19.4738 8.80381 19.4212 8.93101 19.3274 9.02478C19.2337 9.11855 19.1065 9.1712 18.9738 9.1712L9.41385 9.20123C9.09385 9.01457 8.96718 8.6912 9.03384 8.2312C9.05334 8.10342 9.11799 7.98717 9.21561 7.9043C9.31322 7.82142 9.43708 7.77768 9.56387 7.78125L12.1839 7.7912Z" fill="#010101"/>
<path d="M7.10393 12.0412C7.23174 12.1515 7.33285 12.292 7.39684 12.4484C7.46083 12.6048 7.48542 12.7713 7.46813 12.9311C7.45083 13.0908 7.39225 13.238 7.29839 13.3575C7.20453 13.477 7.07876 13.5646 6.93395 13.6112C6.88728 13.6312 6.60725 13.6413 6.09392 13.6413C5.70725 13.6479 5.49397 13.4312 5.45397 12.9912C5.40063 12.4112 5.58061 12.0613 5.99395 11.9413C6.50061 11.8013 6.8706 11.8346 7.10393 12.0412Z" fill="#010101"/>
<path d="M9.94389 12.0813L19.0739 12.1213C19.18 12.1213 19.2817 12.1635 19.3567 12.2385C19.4317 12.3135 19.4739 12.4152 19.4739 12.5213V12.9113C19.4739 12.9792 19.4604 13.0463 19.4341 13.1089C19.4079 13.1714 19.3694 13.2281 19.321 13.2755C19.2725 13.323 19.2151 13.3604 19.1521 13.3854C19.089 13.4104 19.0217 13.4226 18.9539 13.4213L9.67387 13.4013C9.19387 13.328 8.99718 13.0646 9.08385 12.6113C9.15718 12.1913 9.44389 12.0147 9.94389 12.0813Z" fill="#010101"/>
<path d="M6.47499 17.9607C7.06006 17.9402 7.52044 17.5255 7.50328 17.0342C7.48613 16.543 6.99794 16.1613 6.41287 16.1818C5.8278 16.2022 5.36742 16.617 5.38458 17.1082C5.40173 17.5994 5.88993 17.9811 6.47499 17.9607Z" fill="#010101"/>
<path d="M10.1237 16.3914L18.8937 16.3614C18.972 16.3614 19.0496 16.377 19.1218 16.4073C19.1941 16.4376 19.2595 16.4819 19.3144 16.5377C19.3694 16.5936 19.4126 16.6598 19.4417 16.7326C19.4708 16.8053 19.485 16.8831 19.4837 16.9614V16.9914C19.4837 17.1479 19.4194 17.298 19.305 17.4086C19.1906 17.5193 19.0355 17.5814 18.8737 17.5814L10.1237 17.5915C9.84371 17.5915 9.61371 17.5648 9.43371 17.5114C9.33806 17.4853 9.25016 17.4361 9.17785 17.3684C9.10554 17.3006 9.05105 17.2164 9.01934 17.1232C8.98763 17.0301 8.97968 16.931 8.99615 16.8347C9.01261 16.7384 9.05299 16.6479 9.1137 16.5714C9.2737 16.3648 9.61038 16.3048 10.1237 16.3914Z" fill="#010101"/>
</svg>
