<svg width="24" height="24" viewBox="0 0 24 24" fill="none" xmlns="http://www.w3.org/2000/svg">
<path d="M20.94 12.47C20.94 14.7164 20.0476 16.8707 18.4592 18.4592C16.8708 20.0476 14.7164 20.94 12.47 20.94C10.2236 20.94 8.06924 20.0476 6.4808 18.4592C4.89237 16.8707 4 14.7164 4 12.47C4 10.2236 4.89237 8.06924 6.4808 6.4808C8.06924 4.89237 10.2236 4 12.47 4C14.7164 4 16.8708 4.89237 18.4592 6.4808C20.0476 8.06924 20.94 10.2236 20.94 12.47ZM16.37 18.08C16.3589 18.1315 16.3643 18.1852 16.3855 18.2334C16.4067 18.2816 16.4426 18.3219 16.4881 18.3485C16.5335 18.3751 16.5862 18.3867 16.6386 18.3815C16.6911 18.3764 16.7405 18.3549 16.78 18.32C21.79 13.88 19.84 6.12999 12.88 5.28999C12.4873 5.24157 12.0887 5.27431 11.709 5.38622C11.3292 5.49812 10.9762 5.68681 10.6718 5.94067C10.3673 6.19454 10.1179 6.50819 9.93869 6.86235C9.75952 7.21651 9.65448 7.60367 9.63 8L9.60999 8.31999C9.55874 9.16417 9.82681 9.9965 10.3607 10.6508C10.8945 11.3052 11.6549 11.7334 12.49 11.85C15.83 12.31 17.1233 14.3867 16.37 18.08ZM8.53 6.83C8.54111 6.77852 8.53567 6.72483 8.51447 6.67662C8.49326 6.62841 8.45738 6.58812 8.41193 6.56151C8.36647 6.5349 8.31374 6.52333 8.26132 6.52844C8.2089 6.53356 8.15945 6.5551 8.12 6.59C3.1 11.05 5.06999 18.82 12.05 19.66C12.4448 19.7084 12.8454 19.6751 13.2271 19.5621C13.6087 19.4491 13.9632 19.2588 14.2687 19.0029C14.5742 18.7471 14.8243 18.4311 15.0034 18.0746C15.1825 17.718 15.2868 17.3285 15.31 16.93L15.32 16.61C15.3686 15.7649 15.0983 14.9325 14.5628 14.2784C14.0274 13.6244 13.2659 13.1965 12.43 13.08C9.08333 12.62 7.78333 10.5367 8.53 6.83Z" fill="#010101"/>
<path d="M12.9584 9.55722C13.5415 9.46172 13.9434 8.95131 13.8559 8.41718C13.7685 7.88306 13.2248 7.52748 12.6416 7.62298C12.0585 7.71848 11.6566 8.22889 11.7441 8.76302C11.8315 9.29714 12.3752 9.65272 12.9584 9.55722Z" fill="#010101"/>
<path d="M12.3363 17.3142C12.8999 17.1779 13.26 16.667 13.1405 16.1731C13.021 15.6793 12.4673 15.3894 11.9036 15.5258C11.34 15.6622 10.9799 16.1731 11.0994 16.6669C11.2189 17.1608 11.7726 17.4506 12.3363 17.3142Z" fill="#010101"/>
</svg>
