<svg width="24" height="24" viewBox="0 0 24 24" fill="none" xmlns="http://www.w3.org/2000/svg">
<path d="M12.0496 4C12.4496 4 12.7663 4.14667 12.9997 4.44C13.833 5.5 14.4263 6.80337 14.7797 8.35004C14.7934 8.41345 14.8223 8.47255 14.864 8.52228C14.9057 8.57201 14.9588 8.61083 15.0189 8.63544C15.0789 8.66004 15.1441 8.66969 15.2086 8.66351C15.2732 8.65734 15.3354 8.63557 15.3896 8.60004C16.3296 8.00004 17.2097 7.90667 18.0297 8.32001C18.6963 8.66001 18.913 9.29337 18.6797 10.22C18.5463 10.7534 18.8197 11.31 19.4997 11.89C19.9863 12.3033 20.1863 12.8367 20.0996 13.49C19.4996 17.76 16.0497 19.51 12.0597 19.52C8.07966 19.52 4.62965 17.77 4.01965 13.5C3.93298 12.8467 4.13299 12.3134 4.61966 11.9C5.29966 11.32 5.57297 10.7633 5.43963 10.23C5.19963 9.30331 5.41298 8.67002 6.07965 8.33002C6.89965 7.91668 7.77966 8.0067 8.71966 8.60004C8.77395 8.63557 8.83607 8.65734 8.90066 8.66351C8.96525 8.66969 9.03035 8.66004 9.09039 8.63544C9.15043 8.61083 9.20359 8.57201 9.24527 8.52228C9.28695 8.47255 9.31591 8.41345 9.32965 8.35004C9.68298 6.80337 10.2763 5.5 11.1096 4.44C11.3363 4.14667 11.6496 4 12.0496 4ZM12.0597 18.19C13.2463 18.19 13.9263 16.9833 14.0996 14.57C14.2796 12.09 13.9263 9.70002 13.0396 7.40002C12.613 6.30669 12.2796 5.76001 12.0396 5.76001C11.7996 5.76001 11.4696 6.30669 11.0496 7.40002C10.1696 9.70669 9.81966 12.1 9.99966 14.58C10.1863 16.9867 10.873 18.19 12.0597 18.19ZM7.02185 9.47699C6.82874 9.58806 6.72125 9.82974 6.72305 10.1489C6.72485 10.468 6.8358 10.8384 7.03146 11.1787C7.12835 11.3472 7.24312 11.5032 7.36923 11.6378C7.49534 11.7724 7.63028 11.8831 7.76642 11.9633C7.90255 12.0436 8.0372 12.0919 8.16263 12.1056C8.28805 12.1193 8.40181 12.098 8.49743 12.043C8.69054 11.932 8.79803 11.6903 8.79623 11.3712C8.79443 11.052 8.68351 10.6816 8.48785 10.3413C8.39097 10.1728 8.27619 10.0168 8.15008 9.8822C8.02397 9.74758 7.889 9.63696 7.75287 9.5567C7.61673 9.47644 7.48212 9.4281 7.35669 9.41443C7.23126 9.40076 7.11748 9.42199 7.02185 9.47699ZM17.0576 9.43964C16.9565 9.38652 16.8385 9.3678 16.7105 9.38458C16.5825 9.40137 16.4469 9.45328 16.3115 9.53741C16.176 9.62155 16.0434 9.73621 15.9213 9.87488C15.7991 10.0135 15.6897 10.1735 15.5994 10.3456C15.4169 10.6931 15.3231 11.069 15.3385 11.3906C15.3539 11.7122 15.4773 11.9532 15.6816 12.0604C15.7828 12.1135 15.9008 12.1322 16.0288 12.1154C16.1568 12.0986 16.2924 12.0467 16.4279 11.9626C16.5633 11.8785 16.6958 11.7638 16.818 11.6251C16.9402 11.4865 17.0496 11.3265 17.14 11.1544C17.3224 10.8069 17.4162 10.431 17.4008 10.1094C17.3854 9.78779 17.2619 9.5469 17.0576 9.43964ZM8.98965 17.22C8.96965 14.8334 8.10632 13.37 6.39966 12.83C6.25902 12.7837 6.10829 12.7774 5.96426 12.8116C5.82023 12.8459 5.68855 12.9195 5.58386 13.0242C5.47917 13.1289 5.40559 13.2606 5.3713 13.4046C5.33702 13.5486 5.34336 13.6994 5.38965 13.84C5.95631 15.6134 6.98631 16.85 8.47964 17.55C8.5347 17.5752 8.59523 17.5862 8.65564 17.5818C8.71604 17.5774 8.77437 17.5579 8.82522 17.525C8.87607 17.4921 8.91779 17.4469 8.94653 17.3936C8.97527 17.3402 8.99011 17.2806 8.98965 17.22ZM15.6396 17.63C17.5063 16.59 18.5596 15.1866 18.7996 13.42C18.818 13.2862 18.7961 13.15 18.7367 13.0287C18.6773 12.9074 18.5831 12.8065 18.4662 12.739C18.3493 12.6714 18.2149 12.6401 18.0802 12.6492C17.9454 12.6583 17.8164 12.7073 17.7097 12.79L15.9196 14.15C15.6951 14.3173 15.5446 14.5609 15.4997 14.83L15.0897 17.24C15.0761 17.3098 15.0829 17.3821 15.1094 17.4482C15.1358 17.5142 15.1808 17.5713 15.2388 17.6124C15.2969 17.6536 15.3656 17.6772 15.4366 17.6803C15.5077 17.6834 15.5782 17.6659 15.6396 17.63Z" fill="black"/>
<path d="M12.1297 13.8202C12.5053 13.8202 12.8097 13.5158 12.8097 13.1402C12.8097 12.7646 12.5053 12.4602 12.1297 12.4602C11.7541 12.4602 11.4497 12.7646 11.4497 13.1402C11.4497 13.5158 11.7541 13.8202 12.1297 13.8202Z" fill="black"/>
<path d="M12.3096 16.4401C12.1163 16.4734 11.9162 16.4301 11.7096 16.3101C11.6248 16.2613 11.5521 16.1912 11.4997 16.1078C11.4473 16.0244 11.4173 15.9311 11.4131 15.8384C11.4089 15.7457 11.4308 15.6574 11.4761 15.5835C11.5214 15.5095 11.5885 15.4529 11.6696 15.4201C11.9429 15.3067 12.2229 15.3035 12.5096 15.4101C12.6205 15.4483 12.7111 15.523 12.767 15.6223C12.8228 15.7216 12.8406 15.8398 12.8176 15.9582C12.7946 16.0765 12.7321 16.1882 12.6401 16.2755C12.548 16.3629 12.4317 16.4208 12.3096 16.4401Z" fill="black"/>
</svg>
