<svg width="24" height="24" viewBox="0 0 24 24" fill="none" xmlns="http://www.w3.org/2000/svg">
<path d="M15.2081 19.6765C12.5815 19.7432 10.0348 19.7166 7.56814 19.5966C5.35814 19.4866 4.85813 18.4765 4.83813 16.4565L4.01815 10.2965C3.96956 9.92955 4.01893 9.55656 4.16125 9.21569C4.30357 8.87482 4.53374 8.57831 4.82815 8.3565L10.0681 4.39654C10.3709 4.16559 10.7346 4.02906 11.1136 4.00414C11.4927 3.97923 11.87 4.06704 12.1981 4.25652L18.2382 7.74652C18.604 7.9554 18.898 8.27054 19.0818 8.65063C19.2656 9.03072 19.3306 9.45802 19.2682 9.87652C19.0482 11.4032 18.7381 13.8665 18.3381 17.2665C18.1248 19.0932 17.0815 19.8965 15.2081 19.6765ZM11.6881 18.4065C14.2348 18.3865 15.7281 18.3632 16.1681 18.3365C16.3026 18.3276 16.4299 18.2743 16.5297 18.1854C16.6295 18.0965 16.6958 17.9772 16.7181 17.8466L18.0081 10.1765C18.0441 9.96834 18.0188 9.75395 17.9355 9.55889C17.8521 9.36384 17.7142 9.19639 17.5381 9.07653C15.6981 7.8432 13.7948 6.64651 11.8282 5.48651C11.8148 5.47984 11.7248 5.4765 11.5581 5.4765C11.3981 5.4765 11.3115 5.48318 11.2982 5.49652C9.35149 6.68985 7.47147 7.92319 5.65814 9.19653C5.48575 9.31891 5.35181 9.48743 5.27209 9.68231C5.19237 9.87718 5.17016 10.0903 5.20813 10.2965L6.64813 17.9465C6.67282 18.077 6.74155 18.1952 6.84317 18.2823C6.94478 18.3694 7.07334 18.4202 7.20813 18.4265C7.64813 18.4398 9.14147 18.4332 11.6881 18.4065Z" fill="black"/>
<path d="M15.1682 12.6267C15.1682 13.5603 14.7973 14.4556 14.1372 15.1157C13.477 15.7759 12.5817 16.1467 11.6482 16.1467C10.7146 16.1467 9.81928 15.7759 9.15915 15.1157C8.49902 14.4556 8.12817 13.5603 8.12817 12.6267C8.12817 11.6931 8.49902 10.7978 9.15915 10.1377C9.81928 9.47757 10.7146 9.10669 11.6482 9.10669C12.5817 9.10669 13.477 9.47757 14.1372 10.1377C14.7973 10.7978 15.1682 11.6931 15.1682 12.6267ZM13.7682 12.5967C13.7682 12.3118 13.712 12.0296 13.603 11.7663C13.4939 11.503 13.3341 11.2638 13.1326 11.0623C12.9311 10.8608 12.6919 10.701 12.4286 10.5919C12.1653 10.4829 11.8831 10.4267 11.5982 10.4267C11.3132 10.4267 11.031 10.4829 10.7678 10.5919C10.5045 10.701 10.2653 10.8608 10.0638 11.0623C9.86225 11.2638 9.70241 11.503 9.59335 11.7663C9.4843 12.0296 9.42816 12.3118 9.42816 12.5967C9.42816 13.1723 9.6568 13.7242 10.0638 14.1312C10.4707 14.5381 11.0227 14.7667 11.5982 14.7667C12.1737 14.7667 12.7256 14.5381 13.1326 14.1312C13.5396 13.7242 13.7682 13.1723 13.7682 12.5967Z" fill="black"/>
</svg>
