<svg width="24" height="24" viewBox="0 0 24 24" fill="none" xmlns="http://www.w3.org/2000/svg">
<path d="M19.1946 8.11C19.1946 8.93482 18.867 9.72587 18.2838 10.3091C17.7005 10.8923 16.9095 11.22 16.0847 11.22C15.2598 11.22 14.4688 10.8923 13.8856 10.3091C13.3023 9.72587 12.9746 8.93482 12.9746 8.11C12.9746 7.28518 13.3023 6.49414 13.8856 5.9109C14.4688 5.32766 15.2598 5 16.0847 5C16.9095 5 17.7005 5.32766 18.2838 5.9109C18.867 6.49414 19.1946 7.28518 19.1946 8.11ZM16.8817 6.5557C16.6742 6.34312 16.3908 6.22166 16.0938 6.21804C15.7968 6.21442 15.5105 6.32893 15.2979 6.5364L14.5106 7.3046C14.298 7.51207 14.1766 7.79548 14.173 8.0925C14.1694 8.38952 14.2839 8.67582 14.4913 8.8884L15.2875 9.7043C15.495 9.91688 15.7784 10.0383 16.0754 10.042C16.3725 10.0456 16.6588 9.93107 16.8713 9.7236L17.6586 8.9554C17.8712 8.74794 17.9927 8.46452 17.9963 8.1675C17.9999 7.87048 17.8854 7.58419 17.6779 7.3716L16.8817 6.5557Z" fill="#010101"/>
<path d="M11.3897 9.15659C11.3883 9.42711 11.3337 9.69471 11.2288 9.9441C11.124 10.1935 10.9711 10.4198 10.7788 10.6101C10.5865 10.8004 10.3586 10.9509 10.1081 11.0531C9.85765 11.1553 9.58946 11.2072 9.31894 11.2058L7.09897 11.1941C6.55265 11.1912 6.02987 10.9714 5.6456 10.5831C5.26132 10.1948 5.04699 9.6697 5.04983 9.12339L5.06057 7.06339C5.06199 6.79286 5.11663 6.52527 5.22146 6.27588C5.3263 6.02649 5.47924 5.80019 5.67154 5.6099C5.86383 5.41962 6.09172 5.26907 6.34219 5.16686C6.59267 5.06464 6.86085 5.01277 7.13138 5.01419L9.35135 5.02589C9.89766 5.02877 10.4204 5.24855 10.8047 5.63688C11.189 6.0252 11.4033 6.55027 11.4005 7.09659L11.3897 9.15659ZM10.0959 6.98369C10.0949 6.87731 10.073 6.77217 10.0315 6.67425C9.98989 6.57633 9.92948 6.48756 9.8536 6.413C9.77773 6.33844 9.68789 6.27956 9.58926 6.23972C9.49063 6.19988 9.38515 6.17985 9.27878 6.18079L7.15884 6.19929C7.05247 6.20022 6.94731 6.22209 6.84939 6.26365C6.75147 6.30522 6.66272 6.36567 6.58816 6.44154C6.51361 6.51742 6.45473 6.60724 6.41488 6.70587C6.37504 6.8045 6.35505 6.91002 6.35599 7.01639L6.37448 9.13629C6.37541 9.24266 6.39724 9.34781 6.43881 9.44573C6.48038 9.54365 6.54085 9.63242 6.61673 9.70698C6.6926 9.78153 6.78238 9.84041 6.88101 9.88025C6.97964 9.9201 7.08518 9.94012 7.19156 9.93919L9.31143 9.92069C9.4178 9.91976 9.52296 9.89789 9.62088 9.85632C9.7188 9.81476 9.80761 9.75431 9.88217 9.67843C9.95673 9.60256 10.0156 9.51274 10.0554 9.41411C10.0953 9.31547 10.1153 9.20996 10.1143 9.10359L10.0959 6.98369Z" fill="#010101"/>
<path d="M11.4291 16.8697C11.4337 17.1678 11.3797 17.4638 11.2699 17.741C11.1602 18.0182 10.997 18.271 10.7895 18.4851C10.5821 18.6992 10.3345 18.8703 10.0609 18.9887C9.7873 19.1071 9.49305 19.1704 9.19498 19.1751L7.33518 19.2043C6.73322 19.2137 6.15215 18.9837 5.71982 18.5647C5.2875 18.1457 5.03933 17.5722 5.02988 16.9702L5.00028 15.0905C4.99559 14.7924 5.04966 14.4964 5.1594 14.2192C5.26914 13.942 5.43241 13.6892 5.63987 13.4751C5.84732 13.261 6.09492 13.0899 6.36851 12.9715C6.64209 12.8531 6.93628 12.7898 7.23435 12.7851L9.09415 12.7559C9.69611 12.7465 10.2772 12.9765 10.7095 13.3955C11.1418 13.8145 11.39 14.388 11.3995 14.99L11.4291 16.8697ZM10.1464 15.0034C10.1466 14.901 10.1266 14.7995 10.0876 14.7048C10.0485 14.6101 9.99122 14.524 9.91892 14.4514C9.84662 14.3789 9.76074 14.3213 9.66617 14.2819C9.57161 14.2425 9.4702 14.2222 9.36777 14.222L7.1478 14.2182C7.04537 14.218 6.94386 14.238 6.84916 14.277C6.75445 14.3161 6.66836 14.3734 6.5958 14.4457C6.52324 14.518 6.46567 14.6038 6.42631 14.6984C6.38694 14.793 6.36655 14.8944 6.36637 14.9968L6.36295 16.9768C6.36277 17.0792 6.38276 17.1807 6.42179 17.2754C6.46082 17.3701 6.51813 17.4562 6.59043 17.5287C6.66273 17.6013 6.74861 17.6589 6.84318 17.6983C6.93774 17.7377 7.03915 17.758 7.14158 17.7582L9.36155 17.762C9.46398 17.7622 9.56549 17.7422 9.66019 17.7032C9.7549 17.6641 9.84099 17.6068 9.91355 17.5345C9.98611 17.4622 10.0437 17.3763 10.083 17.2818C10.1224 17.1872 10.1428 17.0858 10.143 16.9834L10.1464 15.0034Z" fill="#010101"/>
<path d="M19.1727 17.1554C19.1723 17.4193 19.1198 17.6806 19.0184 17.9243C18.9169 18.168 18.7685 18.3893 18.5815 18.5756C18.3946 18.7619 18.1728 18.9096 17.9287 19.0102C17.6847 19.1108 17.4232 19.1623 17.1592 19.1619L15.0192 19.1581C14.7553 19.1576 14.494 19.1052 14.2503 19.0037C14.0066 18.9023 13.7853 18.7538 13.5989 18.5669C13.4126 18.3799 13.265 18.1581 13.1644 17.914C13.0638 17.67 13.0122 17.4085 13.0127 17.1446L13.0169 14.7646C13.0174 14.5006 13.0698 14.2393 13.1713 13.9956C13.2727 13.7519 13.4211 13.5306 13.6081 13.3443C13.7951 13.158 14.0169 13.0103 14.261 12.9097C14.505 12.8091 14.7664 12.7576 15.0304 12.7581L17.1704 12.7619C17.4344 12.7623 17.6956 12.8148 17.9393 12.9162C18.183 13.0176 18.4044 13.1661 18.5907 13.353C18.777 13.54 18.9247 13.7619 19.0253 14.0059C19.1259 14.2499 19.1774 14.5114 19.1769 14.7754L19.1727 17.1554ZM17.9266 14.9132C17.927 14.7275 17.8535 14.5494 17.7225 14.4179C17.5914 14.2864 17.4135 14.2123 17.2279 14.212L14.9279 14.208C14.836 14.2078 14.745 14.2258 14.66 14.2608C14.575 14.2958 14.4977 14.3472 14.4326 14.4121C14.3675 14.477 14.3158 14.5541 14.2805 14.639C14.2451 14.7238 14.2269 14.8148 14.2267 14.9068L14.223 17.0268C14.2227 17.2124 14.2962 17.3906 14.4272 17.522C14.5582 17.6535 14.7361 17.7276 14.9217 17.728L17.2217 17.732C17.3137 17.7321 17.4047 17.7142 17.4897 17.6791C17.5747 17.6441 17.6519 17.5927 17.717 17.5278C17.7822 17.4629 17.8339 17.3858 17.8692 17.3009C17.9045 17.2161 17.9228 17.1251 17.9229 17.0332L17.9266 14.9132Z" fill="#010101"/>
</svg>
