<svg width="24" height="24" viewBox="0 0 24 24" fill="none" xmlns="http://www.w3.org/2000/svg">
<path d="M19.9106 17.0529L19.5806 19.4029C19.5471 19.6278 19.4605 19.8415 19.3279 20.0261C19.1954 20.2107 19.0208 20.3607 18.8189 20.4636C18.617 20.5665 18.3937 20.6193 18.1678 20.6174C17.9419 20.6155 17.7199 20.5591 17.5206 20.4529L14.1506 18.6629C14.0863 18.6292 14.0318 18.5793 13.9925 18.5182C13.9532 18.4571 13.9304 18.3869 13.9264 18.3143C13.9223 18.2417 13.9372 18.1694 13.9695 18.1043C14.0018 18.0392 14.0504 17.9836 14.1106 17.9429C14.9106 17.4096 15.8273 17.0796 16.8606 16.9529C16.9593 16.939 17.0529 16.8998 17.132 16.8392C17.2112 16.7786 17.2731 16.6988 17.3115 16.6077C17.35 16.5166 17.3637 16.4174 17.3513 16.32C17.3388 16.2227 17.3007 16.1306 17.2406 16.0529L15.9406 14.3329C15.913 14.2989 15.8758 14.2739 15.8338 14.2611C15.7919 14.2484 15.7471 14.2484 15.7051 14.2613C15.6632 14.2742 15.6261 14.2994 15.5986 14.3335C15.571 14.3677 15.5544 14.4092 15.5506 14.4529C15.4973 15.7929 14.5339 16.913 13.0806 17.533C12.789 17.656 12.8791 17.6106 12.5806 17.533C10.8339 17.053 9.63064 16.0429 9.37064 14.6429C9.3566 14.5651 9.31863 14.4936 9.26202 14.4384C9.20542 14.3832 9.13299 14.347 9.05484 14.3349C8.97669 14.3228 8.89671 14.3353 8.82605 14.3708C8.75539 14.4063 8.69754 14.463 8.66061 14.5329L7.93063 15.9129C7.89749 15.9746 7.87687 16.0422 7.87 16.1118C7.86312 16.1815 7.87011 16.2518 7.89056 16.3188C7.91102 16.3857 7.94453 16.4479 7.98917 16.5019C8.0338 16.5558 8.08869 16.6003 8.15063 16.6329L15.1206 20.3229C15.1795 20.3539 15.227 20.4037 15.2556 20.4643C15.2841 20.5249 15.2922 20.5929 15.2784 20.6574C15.2646 20.7218 15.2297 20.7791 15.1794 20.82C15.129 20.8609 15.0661 20.883 15.0006 20.8829C12.2406 21.0029 9.4973 20.9796 6.77063 20.813C6.54019 20.7991 6.31627 20.7313 6.11371 20.6143C5.91114 20.4974 5.73454 20.3338 5.59558 20.1343C5.45662 19.9348 5.35846 19.7041 5.30762 19.4573C5.25677 19.2106 5.25439 18.9534 5.30063 18.7029C5.49396 17.5962 5.12729 16.7996 4.20062 16.313C4.14 16.2805 4.08932 16.2322 4.05399 16.1732C4.01865 16.1142 4 16.0467 4 15.9779C4 15.9092 4.01865 15.8417 4.05399 15.7827C4.08932 15.7237 4.14 15.6754 4.20062 15.6429C5.73396 14.8429 7.18731 13.2962 8.56064 11.0029C8.95397 10.3429 9.89395 9.73957 11.3806 9.1929C11.4286 9.1737 11.4713 9.14313 11.5049 9.10391C11.5384 9.06469 11.5617 9.01812 11.5726 8.96841C11.5835 8.91871 11.5818 8.86742 11.5674 8.8193C11.5531 8.77119 11.5267 8.72773 11.4906 8.6929C10.384 7.60623 10.0039 6.5229 10.3506 5.4429C11.3806 3.0429 15.3506 3.75292 14.9106 6.71292C14.7706 7.61292 14.0906 8.03295 13.8106 8.68295C13.7693 8.7799 13.7506 8.88507 13.7562 8.9902C13.7618 9.09534 13.7915 9.19755 13.8429 9.28873C13.8943 9.3799 13.966 9.45753 14.0524 9.51553C14.1388 9.57353 14.2375 9.61034 14.3406 9.62295L14.7706 9.68295C15.1872 9.74039 15.5611 9.95605 15.8106 10.2829L18.8206 14.2729C19.0402 14.5635 19.3598 14.7659 19.7206 14.8429C20.174 14.9429 20.5306 15.0929 20.7906 15.2929C20.9265 15.3935 21.0164 15.5446 21.0408 15.7132C21.0651 15.8818 21.0219 16.0543 20.9206 16.1929C20.674 16.5262 20.3373 16.8129 19.9106 17.0529Z" fill="#010101"/>
</svg>
