<svg width="24" height="24" viewBox="0 0 24 24" fill="none" xmlns="http://www.w3.org/2000/svg">
<path d="M12.3464 4.07188C13.3554 4.41883 14.0743 5.09209 14.5031 6.09165C14.5868 6.27895 14.731 6.43392 14.9134 6.53249C15.0958 6.63107 15.3062 6.66774 15.512 6.63686C17.5131 6.34773 18.6692 7.26058 18.9803 9.37534C19.119 10.3047 18.4885 10.8127 18.2489 11.5933C18.189 11.7933 18.1715 12.0041 18.1975 12.2128C18.2235 12.4215 18.2925 12.6239 18.4002 12.8077C19.5184 14.6746 17.873 17.0107 17.0885 17.38C16.6118 17.6303 16.6118 17.6303 15.903 17.5163C15.7012 17.3924 15.5414 17.3346 15.4237 17.3429C15.2111 17.3575 15.0062 17.4298 14.8306 17.552C14.6551 17.6743 14.5157 17.8418 14.4274 18.0368C13.6035 19.7798 12.1825 20.3622 10.1646 19.7839C9.41632 19.3709 8.86983 18.743 8.5251 17.9004C8.45229 17.7174 8.31472 17.566 8.13691 17.473C7.9591 17.38 7.75255 17.3514 7.55397 17.3924C5.72946 17.7641 4.56915 16.9629 4.07309 14.9885C3.75779 13.737 4.55239 13.3653 4.75418 12.4359C4.83555 12.0278 4.76862 11.6028 4.56497 11.234C3.53921 9.40838 3.94281 7.9049 5.77573 6.72361C6.17931 6.45926 6.59971 6.40556 7.03692 6.56252C7.27234 6.64513 7.4741 6.68644 7.64226 6.68644C7.84021 6.68307 8.03265 6.62388 8.19611 6.51608C8.35956 6.40828 8.48697 6.25654 8.5629 6.07928C9.24394 4.43538 10.5051 3.76623 12.3464 4.07188ZM13.1158 6.99622C13.1158 6.78956 13.0744 6.5849 12.9939 6.39398C12.9134 6.20305 12.7954 6.02957 12.6467 5.88344C12.4979 5.73731 12.3214 5.62139 12.1271 5.54231C11.9327 5.46322 11.7244 5.42255 11.5141 5.42255C11.0893 5.42255 10.6819 5.58832 10.3815 5.88344C10.0812 6.17856 9.91237 6.57885 9.91237 6.99622C9.91237 7.41358 10.0812 7.81383 10.3815 8.10896C10.6819 8.40408 11.0893 8.56988 11.5141 8.56988C11.7244 8.56988 11.9327 8.52921 12.1271 8.45012C12.3214 8.37104 12.4979 8.25509 12.6467 8.10896C12.7954 7.96283 12.9134 7.78935 12.9939 7.59842C13.0744 7.40749 13.1158 7.20287 13.1158 6.99622ZM8.68906 9.49922C8.68906 9.09171 8.52426 8.70091 8.23098 8.41276C7.93769 8.12461 7.53997 7.96273 7.12521 7.96273C6.71044 7.96273 6.31265 8.12461 6.01936 8.41276C5.72608 8.70091 5.56135 9.09171 5.56135 9.49922C5.56135 9.90673 5.72608 10.2976 6.01936 10.5857C6.31265 10.8739 6.71044 11.0358 7.12521 11.0358C7.53997 11.0358 7.93769 10.8739 8.23098 10.5857C8.52426 10.2976 8.68906 9.90673 8.68906 9.49922ZM17.53 9.51162C17.53 9.09755 17.3625 8.70042 17.0645 8.40762C16.7665 8.11482 16.3623 7.95032 15.9409 7.95032C15.7322 7.95032 15.5255 7.99071 15.3328 8.06918C15.14 8.14764 14.9647 8.26264 14.8172 8.40762C14.6696 8.5526 14.5526 8.72473 14.4727 8.91415C14.3928 9.10357 14.3518 9.30659 14.3518 9.51162C14.3518 9.71666 14.3928 9.91968 14.4727 10.1091C14.5526 10.2985 14.6696 10.4707 14.8172 10.6156C14.9647 10.7606 15.14 10.8756 15.3328 10.9541C15.5255 11.0325 15.7322 11.0729 15.9409 11.0729C16.3623 11.0729 16.7665 10.9084 17.0645 10.6156C17.3625 10.3228 17.53 9.9257 17.53 9.51162ZM13.6834 12.027C13.6834 11.4519 13.4508 10.9004 13.0369 10.4937C12.623 10.0871 12.0617 9.85858 11.4763 9.85858C10.891 9.85858 10.3295 10.0871 9.91561 10.4937C9.5017 10.9004 9.26924 11.4519 9.26924 12.027C9.26924 12.6021 9.5017 13.1537 9.91561 13.5604C10.3295 13.967 10.891 14.1955 11.4763 14.1955C12.0617 14.1955 12.623 13.967 13.0369 13.5604C13.4508 13.1537 13.6834 12.6021 13.6834 12.027ZM8.61339 14.5424C8.61339 14.1448 8.45258 13.7634 8.16639 13.4823C7.88021 13.2011 7.49206 13.0431 7.08734 13.0431C6.68261 13.0431 6.29447 13.2011 6.00828 13.4823C5.72209 13.7634 5.56135 14.1448 5.56135 14.5424C5.56135 14.9401 5.72209 15.3214 6.00828 15.6026C6.29447 15.8838 6.68261 16.0418 7.08734 16.0418C7.49206 16.0418 7.88021 15.8838 8.16639 15.6026C8.45258 15.3214 8.61339 14.9401 8.61339 14.5424ZM17.53 14.592C17.53 14.1878 17.3665 13.8001 17.0756 13.5143C16.7847 13.2285 16.3901 13.0679 15.9787 13.0679C15.5672 13.0679 15.1727 13.2285 14.8818 13.5143C14.5909 13.8001 14.4274 14.1878 14.4274 14.592C14.4274 14.9962 14.5909 15.3839 14.8818 15.6697C15.1727 15.9555 15.5672 16.1161 15.9787 16.1161C16.3901 16.1161 16.7847 15.9555 17.0756 15.6697C17.3665 15.3839 17.53 14.9962 17.53 14.592ZM11.5645 18.6315C12.0606 18.615 12.5483 18.2433 13.0275 17.5163C13.1267 17.367 13.1879 17.1967 13.2062 17.0192C13.2245 16.8417 13.1994 16.6622 13.133 16.4954C13.0665 16.3285 12.9607 16.1791 12.8239 16.0593C12.6872 15.9395 12.5235 15.8528 12.3464 15.8063C12.2876 15.7898 11.9976 15.7898 11.4763 15.8063C10.955 15.8229 10.6691 15.8394 10.6186 15.8559C10.4463 15.9128 10.2897 16.0084 10.1615 16.1349C10.0334 16.2613 9.93712 16.4152 9.88066 16.584C9.8242 16.7528 9.80914 16.9319 9.83655 17.1068C9.86397 17.2816 9.93315 17.4474 10.0385 17.5907C10.5598 18.3011 11.0685 18.648 11.5645 18.6315Z" fill="#010101"/>
</svg>
