<svg width="24" height="24" viewBox="0 0 24 24" fill="none" xmlns="http://www.w3.org/2000/svg">
<path d="M17.3179 8.90932C17.3116 8.86795 17.2968 8.82837 17.2743 8.79292C17.2519 8.75747 17.2223 8.7269 17.1873 8.70304C17.1523 8.67917 17.1126 8.66247 17.0707 8.65399C17.0288 8.64552 16.9854 8.64545 16.9432 8.65372L11.3327 9.84293C11.1076 9.89346 10.9063 10.019 10.762 10.1988C10.6177 10.3786 10.5392 10.602 10.5391 10.832C10.5465 11.247 10.5317 13.066 10.495 16.2891C10.4619 18.7564 8.13619 21.0125 5.61204 19.5232C3.44061 18.234 3.50674 15.4666 5.54591 14.0774C6.35055 13.5439 7.08911 13.7773 7.93784 13.8106C8.03377 13.8136 8.1293 13.7971 8.21879 13.7622C8.30827 13.7272 8.38988 13.6745 8.45876 13.6071C8.52764 13.5397 8.58237 13.459 8.61975 13.3699C8.65713 13.2807 8.67638 13.185 8.67633 13.0882V8.22026C8.67551 7.48503 8.92485 6.77213 9.38253 6.20136C9.8402 5.63059 10.4783 5.23674 11.1894 5.08609L16.0834 4.05249C16.4324 3.97822 16.7934 3.98281 17.1402 4.06599C17.487 4.14916 17.8109 4.30884 18.0885 4.53337C18.366 4.75789 18.5902 5.04163 18.7449 5.36407C18.8995 5.68652 18.9806 6.03955 18.9823 6.39754C19.0117 10.1393 19.0044 13.0882 18.9603 15.2444C18.9383 16.6225 18.1887 17.6561 16.7117 18.3451C16.3408 18.518 15.9207 18.5572 15.5213 18.4563C11.3437 17.4561 11.7405 11.8101 16.5574 12.1435C16.7421 12.1549 16.9247 12.098 17.0708 11.9834C17.2169 11.8688 17.3165 11.7044 17.351 11.5211C17.4907 10.7579 17.4796 9.88736 17.3179 8.90932ZM17.1798 5.93768C17.1543 5.85091 17.112 5.77005 17.0556 5.69972C16.9991 5.62939 16.9294 5.57094 16.8506 5.52776C16.7717 5.48458 16.6851 5.45751 16.5959 5.44805C16.5066 5.4386 16.4164 5.4469 16.3303 5.47261L10.9827 7.06985C10.8966 7.09555 10.8164 7.13805 10.7467 7.195C10.6769 7.25195 10.619 7.32223 10.5761 7.40176C10.5333 7.48129 10.5065 7.56852 10.4971 7.65852C10.4877 7.74852 10.496 7.83949 10.5215 7.92626L10.534 7.96886C10.5595 8.05563 10.6017 8.1365 10.6582 8.20683C10.7147 8.27716 10.7843 8.33554 10.8632 8.37872C10.9421 8.4219 11.0287 8.44904 11.1179 8.45849C11.2072 8.46795 11.2974 8.45958 11.3835 8.43387L16.7312 6.8367C16.8172 6.811 16.8973 6.76843 16.9671 6.71148C17.0368 6.65453 17.0948 6.58431 17.1376 6.50478C17.1805 6.42525 17.2073 6.33796 17.2167 6.24796C17.2261 6.15796 17.2178 6.06699 17.1923 5.98022L17.1798 5.93768ZM17.3731 15.2777C17.3731 14.865 17.2105 14.4692 16.9211 14.1774C16.6317 13.8856 16.2392 13.7217 15.8299 13.7217C15.4207 13.7217 15.0282 13.8856 14.7388 14.1774C14.4494 14.4692 14.2867 14.865 14.2867 15.2777C14.2867 15.6903 14.4494 16.0861 14.7388 16.3779C15.0282 16.6697 15.4207 16.8337 15.8299 16.8337C16.2392 16.8337 16.6317 16.6697 16.9211 16.3779C17.2105 16.0861 17.3731 15.6903 17.3731 15.2777ZM8.7204 16.8114C8.7204 16.3958 8.55667 15.9972 8.26521 15.7033C7.97374 15.4094 7.57844 15.2444 7.16625 15.2444C6.75406 15.2444 6.35876 15.4094 6.0673 15.7033C5.77583 15.9972 5.61204 16.3958 5.61204 16.8114C5.61204 17.227 5.77583 17.6256 6.0673 17.9195C6.35876 18.2134 6.75406 18.3785 7.16625 18.3785C7.57844 18.3785 7.97374 18.2134 8.26521 17.9195C8.55667 17.6256 8.7204 17.227 8.7204 16.8114Z" fill="black"/>
</svg>
