<svg width="24" height="24" viewBox="0 0 24 24" fill="none" xmlns="http://www.w3.org/2000/svg">
<path d="M12.0113 3C12.4926 3 12.9663 3.42254 13.4325 4.26761C13.6159 4.60083 13.9136 4.85158 14.2672 4.97055C20.1665 6.91805 17.042 12.991 19.8281 15.8374C19.8986 15.9094 19.95 15.9985 19.9774 16.0964C20.0048 16.1943 20.0073 16.2977 19.9848 16.3969C19.9622 16.4961 19.9152 16.5878 19.8484 16.6633C19.7815 16.7388 19.6969 16.7956 19.6025 16.8284L15.4742 18.315C15.3595 18.3556 15.2543 18.4195 15.1651 18.5028C15.0758 18.586 15.0044 18.6868 14.9553 18.799C14.3086 20.2663 13.3235 21 12 21C10.669 21 9.68013 20.2625 9.03343 18.7874C8.98304 18.6774 8.9111 18.5789 8.82193 18.4977C8.73276 18.4165 8.62818 18.3543 8.51453 18.315L4.39748 16.8169C4.30313 16.7841 4.2185 16.7272 4.15163 16.6517C4.08475 16.5762 4.03782 16.4846 4.01524 16.3854C3.99267 16.2862 3.99521 16.1828 4.02261 16.0849C4.05001 15.987 4.10138 15.8978 4.17187 15.8259C6.95796 12.9795 3.84476 6.90653 9.74405 4.97055C10.1018 4.85412 10.404 4.60308 10.59 4.26761C11.0563 3.42254 11.53 3 12.0113 3ZM11.9774 17.0704C13.707 17.0704 15.5531 16.7708 17.5158 16.1716C17.6238 16.1368 17.7151 16.0618 17.7716 15.9615C17.828 15.8612 17.8454 15.7428 17.8203 15.63L16.3652 8.58899C16.2547 8.04968 15.9824 7.55898 15.5861 7.18515C15.1899 6.81132 14.6894 6.57295 14.1544 6.5032C13.643 6.44174 12.9212 6.40717 11.9887 6.39949C11.0563 6.39949 10.3306 6.43406 9.81173 6.5032C9.27824 6.57223 8.77897 6.80891 8.3829 7.18051C7.98683 7.55211 7.71352 8.04027 7.60088 8.57746L6.13453 15.6184C6.10948 15.7313 6.12692 15.8496 6.18334 15.95C6.23976 16.0503 6.33106 16.1253 6.4391 16.16C8.40178 16.767 10.2479 17.0704 11.9774 17.0704ZM13.049 18.2919H11.0074C10.9253 18.2938 10.8462 18.3233 10.7823 18.3759C10.7183 18.4285 10.6732 18.5012 10.6539 18.5827C10.6346 18.6642 10.6422 18.7499 10.6755 18.8266C10.7089 18.9032 10.7661 18.9664 10.8382 19.0064C11.8534 19.5365 12.6693 19.4942 13.2859 18.8796C13.3323 18.8313 13.3638 18.7702 13.3764 18.7037C13.3891 18.6373 13.3824 18.5686 13.3572 18.506C13.3319 18.4434 13.2893 18.3898 13.2345 18.3517C13.1798 18.3137 13.1152 18.2929 13.049 18.2919Z" fill="#010101"/>
</svg>
