<svg width="24" height="24" viewBox="0 0 24 24" fill="none" xmlns="http://www.w3.org/2000/svg">
<path d="M14.0518 7.13913C13.3147 6.94809 13.3872 6.17353 14.144 6.08922C14.8903 6.00608 15.6192 6.04247 16.05 6.24104C16.1955 6.3108 16.3247 6.40802 16.4296 6.52668C16.5345 6.64535 16.6129 6.78296 16.66 6.93104C17.9106 10.7644 18.2482 12.6285 18.314 16.7828C18.3313 17.8794 17.4442 18.7723 16.3475 18.7833L6.63004 18.8811C6.41609 18.8837 6.20371 18.8437 6.0054 18.7634C5.80709 18.683 5.62683 18.5639 5.47507 18.4131C5.32331 18.2623 5.20312 18.0827 5.12155 17.8849C5.03999 17.6871 4.99869 17.475 5.00003 17.2611C5.0267 13.4811 5.51004 10.0411 6.45004 6.94105C6.50286 6.76789 6.59683 6.61009 6.72397 6.48121C6.85111 6.35233 7.0076 6.25623 7.18002 6.20106C7.76002 6.01439 8.43666 5.95768 9.20999 6.03102C9.26584 6.03585 9.32015 6.05211 9.36948 6.07875C9.41881 6.10538 9.46212 6.14188 9.4968 6.18592C9.53147 6.22997 9.55677 6.28065 9.57108 6.33485C9.58539 6.38905 9.58846 6.44562 9.58005 6.50105L9.51999 6.85102C9.51521 6.87884 9.50493 6.90542 9.48966 6.92915C9.47438 6.95288 9.45446 6.97328 9.43112 6.98915C9.40779 7.00501 9.38153 7.01602 9.35385 7.0215C9.32617 7.02697 9.29761 7.02685 9.26999 7.02107C8.30999 6.8544 7.64004 6.97439 7.26004 7.38105C7.19423 7.45986 7.14952 7.55273 7.13004 7.65107L6.34 13.0811C6.32568 13.1741 6.33386 13.2692 6.3638 13.3585C6.39374 13.4477 6.44458 13.5285 6.51212 13.5941C6.57966 13.6596 6.66195 13.7081 6.75205 13.7354C6.84214 13.7627 6.93742 13.7681 7.03 13.751C8.55 13.471 9.55669 13.7877 10.05 14.7011C10.1876 14.9555 10.3879 15.1717 10.6311 15.3283C10.8742 15.4849 11.1517 15.5764 11.4359 15.5936C11.7201 15.6108 12.0012 15.5531 12.251 15.4263C12.5009 15.2996 12.7108 15.1081 12.86 14.871C13.44 13.9444 14.52 13.5644 16.1 13.731C16.1803 13.7391 16.2615 13.729 16.3374 13.7015C16.4133 13.674 16.4821 13.6299 16.5387 13.5723C16.5953 13.5148 16.6383 13.4452 16.6645 13.3688C16.6906 13.2925 16.6994 13.2112 16.69 13.1311L16.12 8.29103C16.0928 8.06997 16.1417 7.67183 16 7.5C15.8583 7.32817 15.5319 7.38983 15.32 7.32106C14.9191 7.32106 14.4731 7.24834 14.0518 7.13913ZM11.55 17.8811C13.4434 17.8811 14.81 17.8644 15.65 17.8311C16.024 17.8193 16.375 17.6788 16.647 17.4321C16.919 17.1854 17.0962 16.8467 17.1504 16.4701C17.2045 16.0935 17.1324 15.7008 16.9456 15.3547C16.7588 15.0087 16.4682 14.7292 16.12 14.561C16.06 14.5277 15.6167 14.591 14.79 14.751C14.5189 14.8019 14.2771 14.9476 14.11 15.161C13.37 16.1144 12.5167 16.5911 11.55 16.5911C10.5767 16.5911 9.72001 16.1177 8.98001 15.171C8.81464 14.9539 8.5727 14.8044 8.30002 14.751C7.47335 14.5977 7.03 14.5377 6.97 14.5711C6.62147 14.7398 6.33068 15.0201 6.14426 15.3671C5.95784 15.7141 5.88659 16.1077 5.94193 16.4847C5.99727 16.8617 6.17604 17.2003 6.44949 17.4462C6.72295 17.6922 7.0753 17.8313 7.45004 17.8411C8.29004 17.8677 9.65669 17.8811 11.55 17.8811Z" fill="#010101"/>
<path d="M11.5296 6.05088C11.8696 6.04421 12.0296 6.37755 12.0096 7.05088C11.9763 8.67088 11.9963 9.82089 12.0696 10.5009C12.0774 10.5702 12.1045 10.636 12.148 10.6905C12.1915 10.7451 12.2495 10.7862 12.3154 10.8092C12.3812 10.8322 12.4523 10.8362 12.5203 10.8205C12.5883 10.8049 12.6504 10.7703 12.6996 10.7209L13.6296 9.79087C13.7044 9.71758 13.8049 9.67655 13.9096 9.67655C14.0143 9.67655 14.1149 9.71758 14.1896 9.79087L14.3996 10.0009C14.4564 10.0599 14.4883 10.1382 14.4883 10.2188C14.4883 10.2994 14.4564 10.3756 14.3996 10.4309L11.8796 12.8609C11.811 12.9244 11.7405 12.9667 11.6796 12.9809C11.633 12.9875 11.593 12.9909 11.5596 12.9909C11.5196 12.9909 11.4796 12.9875 11.4396 12.9809C11.3767 12.9695 11.3024 12.927 11.2296 12.8609L8.68964 10.4509C8.63291 10.3956 8.60107 10.3194 8.60107 10.2388C8.60107 10.1582 8.63291 10.0799 8.68964 10.0209L8.8996 9.81089C8.97437 9.7376 9.07493 9.69657 9.17963 9.69657C9.28433 9.69657 9.38482 9.7376 9.45959 9.81089L10.3896 10.7309C10.4395 10.7806 10.5025 10.8151 10.5713 10.8303C10.6401 10.8455 10.7117 10.8407 10.7779 10.8166C10.8441 10.7924 10.9019 10.7499 10.9448 10.6939C10.9876 10.638 11.0135 10.5711 11.0196 10.5009C11.0863 9.82089 11.0963 8.67088 11.0496 7.05088C11.0296 6.38421 11.1896 6.05088 11.5296 6.05088Z" fill="#010101"/>
</svg>
