<svg width="24" height="24" viewBox="0 0 24 24" fill="none" xmlns="http://www.w3.org/2000/svg">
<path d="M12.1386 2C12.7892 2 13.5631 3.85331 14.4601 7.55992C14.5229 7.81999 14.672 8.05155 14.8837 8.21771C15.0954 8.38386 15.3576 8.47504 15.6283 8.47671H20.8777C21.072 8.47772 21.2611 8.53944 21.4185 8.65323C21.576 8.76703 21.6939 8.9272 21.7558 9.11134C21.8178 9.29549 21.8206 9.49439 21.7639 9.6802C21.7072 9.86602 21.5938 10.0295 21.4396 10.1476L17.0922 13.4451C16.8651 13.6135 16.7017 13.8533 16.6291 14.1248C16.5565 14.3964 16.579 14.6835 16.693 14.9386L18.7631 19.6113C18.8307 19.7726 18.8465 19.9509 18.8083 20.1215C18.77 20.2922 18.6796 20.4467 18.5496 20.5636C18.4197 20.6806 18.2565 20.7543 18.0828 20.7744C17.9091 20.7945 17.7335 20.7601 17.5802 20.676L13.0849 18.0883C13.0411 18.066 12.9917 18.057 12.9428 18.0625C12.894 18.068 12.8478 18.0878 12.8101 18.1192C12.7723 18.1507 12.7446 18.1926 12.7304 18.2396C12.7161 18.2867 12.716 18.3369 12.7301 18.384C12.9272 18.9065 12.9913 19.4733 12.9223 20.0845C12.8631 20.5577 12.597 20.8239 12.109 20.8239C11.621 20.8239 11.3549 20.5429 11.2957 20.0845C11.2267 19.4733 11.2908 18.9065 11.4879 18.384C11.5019 18.3369 11.5018 18.2867 11.4876 18.2396C11.4734 18.1926 11.4457 18.1507 11.4079 18.1192C11.3702 18.0878 11.324 18.068 11.2751 18.0625C11.2263 18.057 11.1769 18.066 11.1331 18.0883L6.6378 20.6612C6.48451 20.7454 6.30886 20.7798 6.13516 20.7596C5.96145 20.7395 5.7983 20.6658 5.66832 20.5489C5.53835 20.4319 5.44798 20.2774 5.40973 20.1067C5.37148 19.9361 5.38723 19.7578 5.45483 19.5965L7.5398 14.9238C7.65372 14.6687 7.67625 14.3816 7.60366 14.11C7.53106 13.8385 7.36769 13.5987 7.14055 13.4304L2.80797 10.1181C2.65378 9.99988 2.5404 9.83644 2.48369 9.65063C2.42698 9.46481 2.42978 9.26591 2.4917 9.08177C2.55362 8.89763 2.67158 8.73745 2.82904 8.62366C2.9865 8.50986 3.17561 8.44814 3.36988 8.44714L8.61925 8.46193C8.89254 8.46354 9.15808 8.37387 9.37281 8.20745C9.58754 8.04104 9.73886 7.80764 9.80221 7.54513C10.7091 3.84838 11.4879 2 12.1386 2ZM14.0757 10.0441C13.9707 10.0459 13.868 10.0137 13.7827 9.95247C13.6975 9.8912 13.6343 9.80408 13.6025 9.70403L12.5378 6.42132C12.5068 6.32204 12.4449 6.23526 12.3611 6.17364C12.2773 6.11202 12.176 6.07879 12.072 6.07879C11.968 6.07879 11.8667 6.11202 11.7829 6.17364C11.6992 6.23526 11.6372 6.32204 11.6062 6.42132L10.5711 9.71882C10.5393 9.81886 10.4761 9.90599 10.3909 9.96726C10.3056 10.0285 10.2029 10.0607 10.0979 10.0589H6.6526C6.54886 10.0588 6.44778 10.0918 6.36406 10.1531C6.28034 10.2143 6.2183 10.3007 6.18698 10.3996C6.15567 10.4985 6.15669 10.6048 6.18989 10.7031C6.2231 10.8013 6.28676 10.8865 6.37164 10.9461L9.18116 12.9424C9.26488 13.003 9.32718 13.0887 9.35907 13.187C9.39096 13.2854 9.39079 13.3913 9.3586 13.4895L8.27915 16.7722C8.2459 16.8708 8.24502 16.9774 8.27665 17.0765C8.30828 17.1757 8.37075 17.2621 8.45497 17.3232C8.53918 17.3843 8.64073 17.4169 8.74477 17.4162C8.84881 17.4155 8.94991 17.3815 9.03331 17.3193L11.8132 15.2639C11.8969 15.2027 11.9979 15.1696 12.1016 15.1696C12.2053 15.1696 12.3063 15.2027 12.3899 15.2639L15.1847 17.3045C15.2681 17.3668 15.3692 17.4007 15.4732 17.4014C15.5773 17.4021 15.6788 17.3695 15.763 17.3084C15.8472 17.2473 15.9097 17.1609 15.9413 17.0618C15.973 16.9627 15.9721 16.856 15.9388 16.7574L14.8446 13.4747C14.8124 13.3765 14.8122 13.2706 14.8441 13.1722C14.876 13.0739 14.9383 12.9882 15.022 12.9276L17.8168 10.9018C17.9028 10.8414 17.967 10.755 18 10.6552C18.0329 10.5554 18.0327 10.4477 17.9995 10.348C17.9663 10.2483 17.9018 10.162 17.8155 10.1019C17.7293 10.0419 17.626 10.0112 17.521 10.0146L14.0757 10.0441Z" fill="#010101"/>
<path d="M18.4966 5.76545C19.3528 4.92401 19.7825 3.97274 19.4562 3.64072C19.1299 3.3087 18.1713 3.72167 17.315 4.56311C16.4588 5.40455 16.0291 6.35582 16.3554 6.68784C16.6817 7.01986 17.6403 6.60689 18.4966 5.76545Z" fill="#010101"/>
<path d="M7.12205 4.68422C6.39779 3.84219 5.51453 3.4143 5.14923 3.7285C4.78394 4.0427 5.07494 4.98002 5.7992 5.82205C6.52347 6.66408 7.40672 7.09197 7.77202 6.77777C8.13731 6.46357 7.84631 5.52625 7.12205 4.68422Z" fill="#010101"/>
<path d="M4.65495 16.3114C5.56745 15.6362 6.08273 14.7855 5.80584 14.4113C5.52895 14.0371 4.56475 14.2811 3.65224 14.9564C2.73973 15.6316 2.22446 16.4823 2.50135 16.8565C2.77824 17.2307 3.74244 16.9867 4.65495 16.3114Z" fill="#010101"/>
<path d="M20.5935 14.9133C19.8168 14.226 18.937 13.9515 18.6286 14.3002C18.3201 14.6488 18.6998 15.4886 19.4766 16.1758C20.2533 16.863 21.1331 17.1375 21.4416 16.7889C21.75 16.4403 21.3703 15.6005 20.5935 14.9133Z" fill="#010101"/>
</svg>
